<mxfile host="app.diagrams.net" agent="Mozilla/5.0 (Windows NT 10.0; Win64; x64) AppleWebKit/537.36 (KHTML, like Gecko) Chrome/134.0.0.0 Safari/537.36" version="26.1.1">
  <diagram name="第 1 页" id="RtZNqCJzqBMIXwsQa_Uc">
    <mxGraphModel dx="1434" dy="2002" grid="1" gridSize="10" guides="1" tooltips="1" connect="1" arrows="1" fold="1" page="1" pageScale="1" pageWidth="827" pageHeight="1169" math="0" shadow="0">
      <root>
        <mxCell id="0" />
        <mxCell id="1" parent="0" />
        <mxCell id="C7I-OKh7lCM1Kby-w0RO-32" style="edgeStyle=orthogonalEdgeStyle;rounded=0;orthogonalLoop=1;jettySize=auto;html=1;exitX=1;exitY=0.5;exitDx=0;exitDy=0;" edge="1" parent="1" source="C7I-OKh7lCM1Kby-w0RO-3" target="C7I-OKh7lCM1Kby-w0RO-7">
          <mxGeometry relative="1" as="geometry" />
        </mxCell>
        <mxCell id="C7I-OKh7lCM1Kby-w0RO-34" value="Text" style="edgeLabel;html=1;align=center;verticalAlign=middle;resizable=0;points=[];" vertex="1" connectable="0" parent="C7I-OKh7lCM1Kby-w0RO-32">
          <mxGeometry x="0.07" y="2" relative="1" as="geometry">
            <mxPoint y="1" as="offset" />
          </mxGeometry>
        </mxCell>
        <mxCell id="C7I-OKh7lCM1Kby-w0RO-3" value="XTRADE" style="rounded=1;whiteSpace=wrap;html=1;" vertex="1" parent="1">
          <mxGeometry x="60" y="547.5" width="120" height="60" as="geometry" />
        </mxCell>
        <mxCell id="C7I-OKh7lCM1Kby-w0RO-9" style="edgeStyle=orthogonalEdgeStyle;rounded=0;orthogonalLoop=1;jettySize=auto;html=1;" edge="1" parent="1" source="C7I-OKh7lCM1Kby-w0RO-7" target="C7I-OKh7lCM1Kby-w0RO-8">
          <mxGeometry relative="1" as="geometry" />
        </mxCell>
        <mxCell id="C7I-OKh7lCM1Kby-w0RO-14" value="1. 下单成功记录 ORDERSNO&amp;nbsp; 和 资金账号" style="edgeLabel;html=1;align=center;verticalAlign=middle;resizable=0;points=[];" vertex="1" connectable="0" parent="C7I-OKh7lCM1Kby-w0RO-9">
          <mxGeometry x="0.0667" y="-2" relative="1" as="geometry">
            <mxPoint as="offset" />
          </mxGeometry>
        </mxCell>
        <mxCell id="C7I-OKh7lCM1Kby-w0RO-35" value="Text" style="edgeLabel;html=1;align=center;verticalAlign=middle;resizable=0;points=[];" vertex="1" connectable="0" parent="C7I-OKh7lCM1Kby-w0RO-9">
          <mxGeometry x="-0.4556" y="-3" relative="1" as="geometry">
            <mxPoint as="offset" />
          </mxGeometry>
        </mxCell>
        <mxCell id="C7I-OKh7lCM1Kby-w0RO-11" style="rounded=0;orthogonalLoop=1;jettySize=auto;html=1;exitX=0;exitY=0;exitDx=0;exitDy=0;" edge="1" parent="1" source="C7I-OKh7lCM1Kby-w0RO-7" target="C7I-OKh7lCM1Kby-w0RO-10">
          <mxGeometry relative="1" as="geometry" />
        </mxCell>
        <mxCell id="C7I-OKh7lCM1Kby-w0RO-12" value="失败则丢失" style="edgeLabel;html=1;align=center;verticalAlign=middle;resizable=0;points=[];" vertex="1" connectable="0" parent="C7I-OKh7lCM1Kby-w0RO-11">
          <mxGeometry x="0.0486" y="-2" relative="1" as="geometry">
            <mxPoint as="offset" />
          </mxGeometry>
        </mxCell>
        <mxCell id="C7I-OKh7lCM1Kby-w0RO-7" value="调用下单接口" style="rounded=1;whiteSpace=wrap;html=1;" vertex="1" parent="1">
          <mxGeometry x="380" y="550" width="120" height="55" as="geometry" />
        </mxCell>
        <mxCell id="C7I-OKh7lCM1Kby-w0RO-42" style="edgeStyle=orthogonalEdgeStyle;rounded=0;orthogonalLoop=1;jettySize=auto;html=1;fillColor=#ffe6cc;strokeColor=#d79b00;" edge="1" parent="1" source="C7I-OKh7lCM1Kby-w0RO-8" target="C7I-OKh7lCM1Kby-w0RO-41">
          <mxGeometry relative="1" as="geometry" />
        </mxCell>
        <mxCell id="C7I-OKh7lCM1Kby-w0RO-43" value="5.同步数据" style="edgeLabel;html=1;align=center;verticalAlign=middle;resizable=0;points=[];" vertex="1" connectable="0" parent="C7I-OKh7lCM1Kby-w0RO-42">
          <mxGeometry x="0.1333" y="3" relative="1" as="geometry">
            <mxPoint as="offset" />
          </mxGeometry>
        </mxCell>
        <mxCell id="C7I-OKh7lCM1Kby-w0RO-8" value="SQLITE" style="rounded=1;whiteSpace=wrap;html=1;" vertex="1" parent="1">
          <mxGeometry x="380" y="310" width="120" height="60" as="geometry" />
        </mxCell>
        <mxCell id="C7I-OKh7lCM1Kby-w0RO-10" value="丢弃" style="rounded=1;whiteSpace=wrap;html=1;" vertex="1" parent="1">
          <mxGeometry x="140" y="410" width="120" height="55" as="geometry" />
        </mxCell>
        <mxCell id="C7I-OKh7lCM1Kby-w0RO-26" style="edgeStyle=orthogonalEdgeStyle;rounded=0;orthogonalLoop=1;jettySize=auto;html=1;entryX=1;entryY=0.5;entryDx=0;entryDy=0;fillColor=#ffe6cc;strokeColor=#d79b00;" edge="1" parent="1" source="C7I-OKh7lCM1Kby-w0RO-15" target="C7I-OKh7lCM1Kby-w0RO-8">
          <mxGeometry relative="1" as="geometry" />
        </mxCell>
        <mxCell id="C7I-OKh7lCM1Kby-w0RO-27" value="1. 扫描当日SNO" style="edgeLabel;html=1;align=center;verticalAlign=middle;resizable=0;points=[];" vertex="1" connectable="0" parent="C7I-OKh7lCM1Kby-w0RO-26">
          <mxGeometry x="0.1241" y="2" relative="1" as="geometry">
            <mxPoint as="offset" />
          </mxGeometry>
        </mxCell>
        <mxCell id="C7I-OKh7lCM1Kby-w0RO-15" value="定时任务" style="rounded=1;whiteSpace=wrap;html=1;" vertex="1" parent="1">
          <mxGeometry x="820" y="310" width="120" height="60" as="geometry" />
        </mxCell>
        <mxCell id="C7I-OKh7lCM1Kby-w0RO-16" value="3点30执行" style="text;html=1;align=center;verticalAlign=middle;resizable=0;points=[];autosize=1;strokeColor=none;fillColor=none;" vertex="1" parent="1">
          <mxGeometry x="827" y="260" width="80" height="30" as="geometry" />
        </mxCell>
        <mxCell id="C7I-OKh7lCM1Kby-w0RO-31" style="edgeStyle=orthogonalEdgeStyle;rounded=0;orthogonalLoop=1;jettySize=auto;html=1;fillColor=#ffe6cc;strokeColor=#d79b00;" edge="1" parent="1" source="C7I-OKh7lCM1Kby-w0RO-19" target="C7I-OKh7lCM1Kby-w0RO-30">
          <mxGeometry relative="1" as="geometry" />
        </mxCell>
        <mxCell id="C7I-OKh7lCM1Kby-w0RO-33" value="3." style="edgeLabel;html=1;align=center;verticalAlign=middle;resizable=0;points=[];" vertex="1" connectable="0" parent="C7I-OKh7lCM1Kby-w0RO-31">
          <mxGeometry x="0.0602" y="1" relative="1" as="geometry">
            <mxPoint as="offset" />
          </mxGeometry>
        </mxCell>
        <mxCell id="C7I-OKh7lCM1Kby-w0RO-36" value="3. 组装参数去查询订单数据" style="edgeLabel;html=1;align=center;verticalAlign=middle;resizable=0;points=[];" vertex="1" connectable="0" parent="C7I-OKh7lCM1Kby-w0RO-31">
          <mxGeometry x="0.0214" y="1" relative="1" as="geometry">
            <mxPoint as="offset" />
          </mxGeometry>
        </mxCell>
        <mxCell id="C7I-OKh7lCM1Kby-w0RO-19" value="" style="points=[];aspect=fixed;html=1;align=center;shadow=0;dashed=0;fillColor=#FF6A00;strokeColor=none;shape=mxgraph.alibaba_cloud.redis_kvstore;" vertex="1" parent="1">
          <mxGeometry x="710" y="550" width="52.5" height="41.4" as="geometry" />
        </mxCell>
        <mxCell id="C7I-OKh7lCM1Kby-w0RO-22" value="redis存储资金账号和ticker(8小时)" style="text;html=1;align=center;verticalAlign=middle;resizable=0;points=[];autosize=1;strokeColor=none;fillColor=none;" vertex="1" parent="1">
          <mxGeometry x="636.25" y="607.5" width="200" height="30" as="geometry" />
        </mxCell>
        <mxCell id="C7I-OKh7lCM1Kby-w0RO-25" style="edgeStyle=orthogonalEdgeStyle;rounded=0;orthogonalLoop=1;jettySize=auto;html=1;exitX=1;exitY=0.5;exitDx=0;exitDy=0;entryX=0.343;entryY=0.628;entryDx=0;entryDy=0;entryPerimeter=0;" edge="1" parent="1" source="C7I-OKh7lCM1Kby-w0RO-7" target="C7I-OKh7lCM1Kby-w0RO-19">
          <mxGeometry relative="1" as="geometry" />
        </mxCell>
        <mxCell id="C7I-OKh7lCM1Kby-w0RO-28" value="2.查询票据" style="rounded=0;orthogonalLoop=1;jettySize=auto;html=1;exitX=1;exitY=0.75;exitDx=0;exitDy=0;entryX=0.4;entryY=0.314;entryDx=0;entryDy=0;entryPerimeter=0;fillColor=#ffe6cc;strokeColor=#d79b00;" edge="1" parent="1" source="C7I-OKh7lCM1Kby-w0RO-8" target="C7I-OKh7lCM1Kby-w0RO-19">
          <mxGeometry relative="1" as="geometry" />
        </mxCell>
        <mxCell id="C7I-OKh7lCM1Kby-w0RO-37" style="rounded=0;orthogonalLoop=1;jettySize=auto;html=1;exitX=0.25;exitY=0;exitDx=0;exitDy=0;fillColor=#ffe6cc;strokeColor=#d79b00;" edge="1" parent="1" source="C7I-OKh7lCM1Kby-w0RO-30" target="C7I-OKh7lCM1Kby-w0RO-8">
          <mxGeometry relative="1" as="geometry" />
        </mxCell>
        <mxCell id="C7I-OKh7lCM1Kby-w0RO-38" value="4. 补全数据数据" style="edgeLabel;html=1;align=center;verticalAlign=middle;resizable=0;points=[];" vertex="1" connectable="0" parent="C7I-OKh7lCM1Kby-w0RO-37">
          <mxGeometry x="0.1294" y="-2" relative="1" as="geometry">
            <mxPoint as="offset" />
          </mxGeometry>
        </mxCell>
        <mxCell id="C7I-OKh7lCM1Kby-w0RO-30" value="调用下单接口" style="rounded=1;whiteSpace=wrap;html=1;" vertex="1" parent="1">
          <mxGeometry x="1020" y="543.2" width="120" height="55" as="geometry" />
        </mxCell>
        <mxCell id="C7I-OKh7lCM1Kby-w0RO-39" value="" style="shape=image;verticalLabelPosition=bottom;labelBackgroundColor=default;verticalAlign=top;aspect=fixed;imageAspect=0;image=data:image/png,iVBORw0KGgoAAAANSUhEUgAABYgAAAEYCAIAAAB5noWwAAAgAElEQVR4Aey9DbAlx3XfN0akslRJbEouOq5EpbLLlUoilZMgGyyVTWLYXttUGWSpEqcYSEaRTyLzAogCrBiQEgiiAIuEHhLKfI+AKFEURC8DigJ2AQogoCUhwIQgmSYYQ/uwBESIuwTxtYuP/cDepU3KFCneqL9On+4+Pd8zd+buf+rVuz1n+vPX5/R0n9sztyiK4qXMUXLJpDh27NiCHceOHTsfHsX2Lv87f/787584Uhz8gU8+95nz58+fPnfm7336J4qDb7j58x8O050//9Rt+4trHoil6jy44k705zXXFDyNuyZlYmQqRlHsv+0pHyVKZGIU6rC1YRFc0H36XOIQxaCAiuFPHrjGZu9FJosHrgmrF2fcwznvoGJ7t68+0lQfuGb/bU/ZxtmPoIXuxH1yJkoWHEE/2YZTwiBQ3qc9MCvLotje/cl/8eU0RrG9+w/vO57KtUQ3VmogUxIedNkwSFo/CYOJQOrD4hmmuiwv5UUHebATFrTFpxJXL9ORpbr7wDWqJqZgIaNIRKcUMEU9ddt+W3d2QQVZM3VMXZwfUaLY/oJvQd+hgQyNINr6lrfMo0kHNHbN02PZqQJIo1iQyQJmPqmYc6jPPBMX9hnofKmvAznLOxmi2TXfoqCO/Z4M1cVePYOmsz5I2sEiuqD7ZHG1KLpvsssqmEvlb87UL1HKHk/NjSnKMBWmEqn6NpuwYeEZ1/OoVBbRBd0ni6lF5WBZ7IbBY8eOLcOj2N4NBeosFSaS527/weK6R3zSR64rfvD255bLZXghPFsGsexIaz504ii2Oi1str6k0lBRFKr++n9pxGU652zIEtFBAARAAASmRUDdTzJ+iZdKLtV0TKRtferVLxUHf6A4+AP3Pvu72ivxA4JXQp4O2cyCWYA7UZ/F/v37+VLIXUsrEUrMCkme1MqLnihudUEUgwKqCv5klY6JEIauV+c+Uk3TLgnNT7fuqdv2a2y+0YyAF0qhtIYkoegUMJcyfUrpBgy0ckzo+phKu8W6rSJrGAtadk7d6QoFTGq3wmOqVt1ynoerEp99ZldJOmuVWh8+Wr5IV5T7ZDEjEZ1SwMSlFpY1UaWxlmxLKG8Xq8agwe6DIUEo9ZyaWIqCw8Ao+qAPsVZHQs+bVsU0eLFUOuiT+hCPE0iFjOMupSguofps3iJehcHD3bvYNdZUNTzrZf0c3zcjJlGJ6mokon6JUvZ4Kngczp8vtne/fOo1XooQLaorix1eCc/GAMuq0jBY3zFx+o+/wRf2QzgmuF/DlBU5JozwkevUXSGNzKtnwtwfwcNpzOUSjomGqoPoIAACIDB5AnzFIYRzPovWjgk1rXHr3uLgG95zNNkrYZBF8wTGMbjiTvgnLUGU0J08ddtt/isem5uX+amVy0hPu92XinoZE3kj+PysqiA/k/PZ8/RqGsSyd3XWyeiEIRg+2LGPzKJlv/syW+F1JyIBL/ShsPUPXCMudCm6C5T36fDgzp9/6ezi9LlFWlLpjokgulI36nbXsEBfVHQVyzJh+snTqqQuIxWmPDMwbSVYiUG1UnksUeeuTkFSdhJ8vUoZqICrnulCumTS0qkKsKg8WW6PlbduVg8fpKy9aLxQN0Or0PawZbLC+LHJLDhdL5x3SpLTKKOQ+6+5Joe9MuegeryTXDjX1y5hyxaN17u6pG5dzCmq7Eq6I2iXY8THDSVz/RtaGb8SZGOTp6lYRj7TOGlv5xftPJHmlbohUkmMj+XCCCnp+GBZXZoFU8fERTtPpOv2xA0h7KFQTgSzR8Juk7AnkXNBuRVcNL0DgkVz8uUj1xm/Q5j2udtvt1syaKNFWlWSpJ6IVEKR4ZhopjeIDQIgAAJzIJDdLlHukujimFBzHe2byHolFDg1bVBHsh4N5hPuxH3aCQYlU7MNfbiZVdgnwmVfrgsVxTW3sQdLnPiaB1ihelqTL4hiUsA10TTPOyaoAfnMwiYMdtalj6J5Hp/0iQSYUAXVocFQ/6RqYNpNCSkg9USQ50DAXn1NcEacP3/+2VPnTIn1HRNhDX3lfRt1DHcho59q+X4bfxKoEqYtNyqGapPKUwlFLgv4itDqhqu9MdUobzrVAWWP5mDDg7pCmsPKd3Kbwrs1bBzKmqUZM9jJ0IilH+Bce8MBig2pGYXJWpzLMNEoM0j7kmNqLmEm5wC8c0aoPFxYRxD6mhK6Apq2KK7o0Oddupga6yrpGx0ZuItgPl20UA0ifWGZmyvMnlh2UiqhX1iK/oPRYzLiqVSq5xBdZW03V1zMVM+DlC5aH2CDjGufpI4J8+CGyIQL+ZKewmYvgx4dyccQPcphnRZmBP3B2293D3yoPHxytx0idEywGD57KjwI5HwQOTkcE7VVBhFBAARAYDYE2jgmTrqj8h0TJRheeu1UyVVcmgIB9FH9XnjxzDk+BaTwNQ8/e+78+bv/8JVie/dtv/1M/QwRUySQLCfEWDMTzsbQIvrRad/UB86+7+qW5jdMFzsXTmnRuNicwKTBio6JYIl/wZzgHRPNdRspQAAEQGDSBArnZGjz2cUxMWkqqBwINCRwdqF2TJA/gge+/dYniu3dPyftRm5YCKKXbM0GnGEIuGc67K4W9p26+iKdnfZe/Do5JnqHozOc9Pp5mCaPk+ukwcIxQY4XOCbGsQeUAgIgAAKjEZi6Y0LNTfmR3zdciazHrMrLGq2g8mqMdnW09o5WUDt0z4ZvYmuXCVKVE1A6MORiuLz01V5dlf7TTn7/6I2pChuNh6jbBdjXDTHa9XPDVGVa3GNWZcWMfq1hu/oH22OL4ZiAY6JHdUJWIAACIDApAlN3TEwKFioDAiAAAiAAAiAAAqsiAMcEHBOr0j2UCwIgAAJDE4BjYmjCyB8EQAAEQAAEQAAEeiAAxwQcEz2oEbIAARAAgUkSgGNikt2CSoEACIAACIAACIBASACOCTgmQo3AGQiAAAisD4HiWLdjwY5uOSE1CIAACIAACIAACIBAGQFamV/ggTJGuAYCIAACIDBDAgVzLDQOpr/K0TiL0RMcmNgxOoAeCjxw4EAPuSALEAABEAABEAABEAABEAABEAABEFgsLizHxIEDB5YTO+a4yJ9jnWHsIAACIAACIAACIAACIAACIAAC0yRwATkmJuiVWOpjduv82VV4mraHWoEACIAACIAACIAACIAACIAACCwuqB0TcEz0pfFwTPRFEvmAAAiAAAiAAAiAAAiAAAiAAAhgx8Ry5cfs1vmzqzDsHARAAARAAARAAARAAARAAARAYLIE4JhYrvyY3Tp/dhWerPmhYiAAAiAAAiAAAiAAAiAAAiAAAnBMLFd+zG6dP7sKw85BAARAAARAAARAAARAAARAAAQmSwCOieXKj9mt82dX4cmaHyoGAiAAAiAAAiAAAiAAAiAAAiAAx8Ry5cfs1vmzqzDsHARAAARAAARAAARAAARAAARAoJLAa+fO/dEzz1VG6z1C1jHxn0tHVPyxY8e4JDrll6YQnu+vchTbu/Q3EZJTqAbqAAIgAAIgAAIgAAIgAAIgAAIg0IjAv37m9D1PvHL/k6/e/+Sp+586Zf7f9/lXf/sLZ+898sLfffvP/Mdv3jz08Gca5dk9ctYxsVgsItdEWljkiYhO0/irlczaMfGjj50xvonVMjSlY8fEFHoBdQABEAABEAABEAABEAABEACBRgROnTr1C4++/KsvL3/xya/tfPFb21/8U/X3R3/6/mPfet/T3/z7P/vrxV/7u6/7ez/2D/7JzY2y7R65zDHBfRNiSZEnIjo1Sb7j1ifo2/5cYLFYHD1xJiriyNbeIn9sHNLRj2zt3bt1hKU8srXXXmJCE+SOiVe/9o1cZbj8op0n/t03/3QZHcd3NneOL5fHd/ZtHqaPw5uFOmOHvb48vCk0g8etXOcX27s/+tgZ45tYDHSU4y4CypUVHqiOyBYEQAAEQAAEQAAEQAAEQAAEQKA1gRdfPHPDp1/6xS9+8xeOnH/3H5x/zx+cf8+R8+9+/NwtT/7x2//5v/j2b/8vfuinbin+h8v/13dtty5CTnhoI1xTxrEqHBPGNxEncueRJyI6XSwWdbwSxhHgsvSfic/BXzq0UaSOCSOs6Zh49vzXuQOiJPxv/iRxTFhnhHI87Ozs26ecFM5LsWSHd0yYKP5S5MSoXOc3cUxEDgbDKRQGTgZH1YNTkUPnTtwVlRV2meITBEAABEAABEAABEAABEAABEBgKgROnjz7f3zyhese+7f/5HdPXfPpV//xI6f+8adf/clHz7zzUy8Uf/vHLn3rT7/h7dcXf3vjl+/5ZM817u6YKKlQ5ImITheLRcmCP7qUlhIupuNNB94xURR6GW2dFX59neTId0wYx4TZhmB2Iiylo9jeTR0Tx3f2RbXZPBzuiti3s+N3SWxu+rBPN9iOidStsFgsAuGhDUMsBOTAqavBsXfrCBwTISucgQAIgAAIgAAIgAAIgAAIgMAMCZw4cfYd9z67+bvn33745MbhlzZ+++Tb7n/x7Q+d+fvvO/y6//TvXPPPPlz8zSu+93/68ePPvZg0LlhUJlerBCt3TLzjs6ejv2J7N5Wk7YhXw4c24m/6D23s3djYu3fr0NbGxobw3EcUP3VM/Jh+PqKpY2Kpj8M7m5v7ikJvhlCuCrsrgm2GyO+YMDnQ/8oNCNyJs6g4RHUJhX7DCctLOSa27NMzDpzrAvfpoldW2EXEJwiAAAiAAAiAAAiAAAiAAAiAwFQInHj57OV3fel/eeD0P7z7uR869NwPHXz2hw4++z9//MW/9qM3v/l/v/6Sd/xMsf8dP//r6r0Jp05HL1sIF5VNGzRNx8QP//4r3DdRbO+m7bKr4eQbfPV1vl4526W0+UbfPXzgvvhP81v055hQjojNw9rxcHhz347yUWzq902oJzrouY3UMcGvLv3R6zpfVBcuVGHneWCUODgVRR9+X0qQotcKszogCAIgAAIgAAIgAAIgAAIgAAIgMBiBE6+cffP/+8X9d760/yPHLz3wpb/54S/+rY88899/6MnXvenHf3zrl4v/8Yf/1k/c9Mqp04vF4vSZs7wWfmO9WhqaBaZeq5uVIi0hg9354WLerym9nGTV75jgtYnC0bMb0al5lIM7IEy42Y4J2ihBAeux0B+HWr78ssujHMoX4V8rQW/C1C/EdNeW5rUThdpSwR7rYM9IkP9iuaxc5zfdMeGL8Z4FklHXh50p7ZhYGIUx+1LYK0YrKxxmjTMQAAEQAAEQAAEQAAEQAAEQAIHVEzjx6tm/82tf+G9+/bk9v/KF/+qXn/4vf+mpPb/2pf/sPY9c9OHL0r+wusYZYWTGD0FvJjyyteF+kkItIY3chxYLvbK0K1G+d8LnObhjgi+qS8Jhm9WZ/QrfO1NoaW13TNhIunliLOJkMk93TKT1+c7bjn74C2fpdZdfPv/1b/zpt5bCkWx+0M9wuAc53Gso7K92OCdEkshkLK7zo7qZJohCc8n9913rJME7JgLtYDEcbhvZsTYI8SgHJ4UwCIAACIAACIAACIAACIAACMySwIlTr73hA0/+1fcf++v/7Oj3/j9Hv/f/PvLX3//Fv/QTH73ow5e9/VPvpb9/+eWjF334srCFfKXJwzaWEtlDryK5/8F4JoxjIlm6G/HgjomwMeosfXAjlZiaB54F2jHBc4yXzGx9zaPpcOqYSF9++dK//ZNl1RG+6NK+ZkL/LgeFdRb2UQ7lrNiJ35fpXBU6ouiYWJQeJ8+cy1wXVCR8+WXGNcEf5aCsjxzR+yRiyi0qTFkiAAIgAAIgAAIgAAIgAAIgAAIgsBICL51+7b/eOfpdtzz9l99z5Lt+/sjrbvrX3/0LT/4HP3kvd0x88ul/tVwuGzgmtE/C7oeg9WiJY8JGDQCsxjHxzKvB8yqSY8IslBN3inPC+GaHrRLX16bFdRwTS30U27vL5fLf/em3/uypkxOpq8K8YkLF9KHlUvsruMPBOCb0LonDO+YVFCb7JX/gY5k8ypFuizCSi3aeUPU5c67Y3v2r//ypv/TBJ418ERykCFwaCNVJCE1FTTaoMK8QHBMcJsIgAAIgAAIgAAIgAAIgAAIgMEsCJ06d+xvbT/zFf3rkP/mFI69/9x/85Xc//ld+4eh/+H99+qIPX/aP7n23+Vsul7/2WeWqCFvIF5U8rJ/TcAtMdUF4lEOLbZzgm/JDG3rdeWRrWMfERTtPhI1RZ6kbIpWoZ1BUDdk2CRPU//1C2YdsOY0cE+KvcpjV/lIfJnzmj79hTtl/tm1i87BxSmwe1o4K8k3Yl2Oq3+twj3Y4t4r7DQ+TYbQBwbhFlssl+R2M5DtvU46J/+/5U2mEhT90l1M51gMR6o1yQjhtoYRROp+DCTlF0/GjClMeCIAACIAACIAACIAACIAACIAACEyWwKtnXvsb20e/+5dOv+6WP/quX3z2de/90ne974W/+At/eNGHL1sul598+l/dtfvQn30D/4/ufXfimDDLSPNeBWmBqReO6v2E7ocp7CsLlXzv1taG/3acrT3t1+FDOyaMG8IssEv+p93mHBLODxGvk11bjWMit68iWE0Hv8rx4r/5elof8gV87Zv2vRJPv/bHJtqSHfHWCHWuXiZhj8Ob9MJL9eJL7adwP9BBUch7oSTROp/8DqY+hqFJGTkmKMKi+1Hi0VEaGKCMKty9cOQAAiAAAiAAAiAAAiAAAiAAAiAwAoFP/eErP/vJZ29++Lmf/53n/umDX37Pwy9c/4mnL/rwZT/3qV9d6uMXH/mNN995feqYGLRuw+6YGLTqTTPnj3J881viKy2X3/yW3aewXC6/rh/l4G4C3U39/4vW+bxEs5eEJAM6JprQjCrcJCniggAIgAAIgAAIgAAIgAAIgAAITIvARR++7M13Xv+Lj/zGcrl8853Xr8AxsWRHUzbR74NGp01zGzo+d0ywRgtB7ggQLvctitb5VDptiCBJsb179MQZOqUIi3GPqMLjFo7SQAAEQAAEQAAEQAAEQAAEQAAEWhJ47Vz8Qwrnzp1Lfyt07B0TS3Y0bVnkiYhOm+Y2dPz6jgmGZIxgtM6PnjGJHoeJToXXcwzNcaEeihm+EJQAAiAAAiAAAiAAAiAAAiAAAiBwQRAoluxo2uLIExGdNs1t6PhzcUwMzaF7/nBMdGeIHEAABEAABEAABEAABEAABEAABAwBOCaWKz9mt86fXYVh7SAAAiAAAiAAAiAAAiAAAiAAApMlAMfEcuXH7Nb5s6vwZM0PFQMBEAABEAABEAABEAABEAABEIBjYrnyY3br/NlVGHYOAiAAAiAAAiAAAiAAAiAAAiAwWQJwTCxXfsxunT+7Ck/W/FAxEAABEAABEAABEAABEAABEAABOCaWKz9mt86fXYVh5yAAAiAAAiAAAiAAAiAAAiAAApMlAMfEcuXH7Nb5s6vwZM0PFQMBEAABEAABEAABEAABEAABEOjZMXFg2sdykse0maF2IAACIAACIAACIAACIAACIAACIDAggZ4dE/D0gAAIgAAIgAAIgAAIgAAIgAAIgAAIgEB9AnBM1GeFmCAAAiAAAiAAAiAAAiAAAiAAAiAAAj0TgGOiZ6DIDgRAAARAAARAAARAAARAAARAAARAoD6BoRwTh+65H38gAAIgAAIgAAIgAAIgAAIgAAIgAALjE6jvFJhCzAEdE0scIAACIAACIAACIAACIAACIAACIAAC4xI4dM/9i1kdcEyMqyAoDQRAAARAAARAAARAAARAAARAAASGJADHxMIch+65f0jOyBsEQAAEQAAEQAAEQAAEQAAEQAAEQEAgsIaOiQ/qYyEdx44d42J+ujaOiQMHDvB+vjY8+KWvfvWr4cVr+VWEQQAEQAAEQAAEQAAEQAAEQAAEQKAOgWgdWicJj9PCMfHiiy/ed99999577/PPP7+oOort3cq/qjwWr549t1gsiu0n1B+vvZjyZn2Il7gnYrFY8NO1d0wsl8uvf/3rnB6FyT1BEgRAAARAAARAAARAAARAAARAAARAoCaBkR0TL7744p133nlAHx/72McqfRPGK/Gjj50R/8zVRdXx1Mkz3rvBuYgJ+3JMfOdtR32pGf/Kcrn88nl5tc/rOWY4UghyOlx7rbAh4pvf/GZ5hLDmzz964NHnmej5R5UiBCJz9flHD9x3dMFidgoujt4nltIp0yaJF0fvSxu5OHpf3MbnH40lSSkmK9WiXFQxE1G4XC65PIXOr/qaCL0YtU4D1zae/Iti+lxZKMQlVKIk/346WhVQp6as0giCAAiAAAiAAAiAAAiAAAhYAtvb201ZROvQpskb7ZjgXgmzYvnYxz72wgsvLEqPnG+ipldisVh8/sTojok6XgnTgKbE4/hf2Cx+Zed4LG1/HimE8Ue8Sx+Rb4J7JZbLZXQ1rQFfb3qXhF5kpovAePWbZldTokp69GjqBIiSs7VuUBlTUbu+5r6AdBnvc2SZJStzLTBFxG0UluA+TxOyDBeLRZzYxhTcHfqKnHcsDTINW2HbzjvRFBmk0SIeJxe21XUfCrMtQeX3qPZYCew0OJ5n4FpZpnVxBfDGBB3sIvBPFbky0nLJ8qwRmxfQIFymZw2yQVQQAAEQAAEQAAEQAAEQGI/Atj4alRetQxulXS6X9R0TJ06coL0SfMXRzjdR3ytBjgmz52KkRzlM/er8b0o8jj+8Y+LrX//6iRMnUt/Ete4wVSpzTLAlHO97E77v6FG/LKXm5deYFKUyoIo1y93SpaaPtlSrzUftXg1daeaL0D4KtwJtsF4M1tFBnUO/QHimdjOkrEKJqpyuZSjmZ66+uhK5uKyRvn6Ci8OLMnXTpeVKkTfH6G0b3g2QQkgqF/AM4md0hnk9dAeb7Sv5HlQNcNw8jzCk4lDNvM6EkXo5yzSql7yRCQiAAAiAAAiAAAiAAAgMQWB7e3tHH/UzH8cxkfNKmCXUfffdt6g6zBrfOhf0gxFVKfx1s2NibMfEOz57OvortndTybLjMbBjgr9XInI9vPbaa1zCY6Ztev7R+x59VHigIY2pJXpxSwu/TKRScbgaNct8ebUprlCDhacryMf0IXeNf2aW7Vbbg2dUclFzVRWYsHW09xz4EK9YGPaLet/aXH0OPPq8i66iUPXSZTP3G+TCvB4sB5ez7n3uXtFhW6Z80camelEJuZ7Kyc1GiCgf1/TKXClCf4E6PdlfacgJBEAABEAABEAABEAABLoTMDsmzP9vfvObdTKMHBPXXXfdtZnjuuuuSzOss2Pi5MmTd95558GDB8UdEwcOHLj33nsXNY5ie5ccEzWi+ygTckz88O+/wn0TxfbusuMxsGOiY+1scrVAPWpetODXlW7xl6z61C4AvY3CxWhYCb24tmnZ+lOXnGapxMlynyVjhZOUAuxiJsjX5i6KZcDrUmv5mZIyObrE9lO1n1pky9LnYV3C3EyTyEvgslQFKOFR9Z4Oczz6vLhNw5Zoy3OR+Sdvr0NBBdo8VRxfTaqiF/mQrhm101STv8HEVT2WBXtRbHn3HX1eN/C+owvVgKimVA1XaxWHlWzFGqHJRzWbRdAaqVEwISNly0slZocHS+RqgE8QAAEQAAEQAAEQAAEQmC4B7pi49dZby7/DNs2IHBPL5VL0TYheiTqPcpBX4qWXXhL3TdR5BeZCH+vgmOBeiXd89nTimDi8eVNR2L/Nw1bTju/8SrH5BX3Jvk6CRyvYOya8fN/vmfdOxGmP/96+JH9bjPlIFSK43OZELz7tgpJ/mLC06lMrMb401qX61R1f7QZh9bU++zpfL0GDVV10Wedrl4MsnpJEa1MVk9wRFEhpsLVlUDN/YsoJ1td6Uc7KV9kmGT36fJhGiOILsSEqy2bOmSbc7ULfr6x1Jo+qn84x7Xz+aLDZI218JInrG10OFt3qaYjnY9cVb4/tD+/IqOGXyPTjQr+hg3gb0u5USCOQsr3jEumWGf30pJ0iegwqlbmu0wcq5q9xTTPhIGJKERIQAAEQAAEQAAEQAAEQmBYB7pgw4T/5kz8pr6K4Do18EzmvRKVj4uTJk3fdddfBgwdfeumlhT6i91/W90ro3/vstGPi9R988j/60JNTfseEcis4h8Jy+YXN4ibjm1DOBRdeLpcq2uYXbLcevoccE4c3b9q3c9rIjT9iuVyGaU/v7LN52uTph6gQabT6EruGM6tc/8W7W2dHqz4VW1qD1i+PxyzxIPBoZvlHX3KzOvBYtCaum6tKYPeJqHy4U8QvVt0yVPsDkhVoFC9YCPO6WT/GffcdTfcHcG+Ef1dkyN2ckYwlUc/gPK9etUmH8f7QqQmomvNI0WVzGlefiOqmBG21wAwQf6W0iJheph8dceduCX4BhqVRwfCICjCVcY2KtCI49dXWsVkhthPzZYWMgj7HCQiAAAiAAAiAAAiAAAhMk0DqmKisZ24dSr6JEq9EpWPi/vvvv+uuu8grsdAH+SZ+4zd+47nnnjPCOv/THRPFwTfwv1wm5lGOtz92+kcfOzOeY2KZHMn+iGUgiR/KCJwL5IlQDgv+Mxx0qhwZtNtCBbSPgzIxtTFbKsh/kVRxucwphPkNjigBf8dEdCk8tUtLu8rSZ0ZEa2EVXy3P3DrPnEVLwTDTyrOGizq3lgyrYUtxF9nGiZLy9UJTV94vOVlbaKXt41nPhW++yp3i2ZPwqi1f56GfRXj0ef3YReibCPJwVWaeB1OweT7D5e8rbb72p00TOn3QZzq5S+eyV+CVS+bR0t8/DSvh6umk7tzlGWywUMKgGlJXq1Yw6D4j35dxbwpJgmJ8HjZEWVHAXHCnxiVhauFkaSGpxBUktctdwycIgAAIgAAIgAAIgAAITJNA5JioU8ncOtQ801Hulah0TNxzzz333XffmTNnFuw4derUxz/+8aZeCbNjotje3dAPQJj8yCuxXC6Lg29ghQTBCTkmTv/xN5bsqHJMGA9C6FwgT4TJh04pwPI3O2CG8l0AACAASURBVCa8U8NeMtsoZPdEpBDG9RD9MqjJ5tprr33Xu95lIpw/f77MSaEWXsEh7JdIF2epJGha5Un1oo4vOllpurpsSatWl7T2dsvLXPH223GKb3YSsNycvyHI1eTG6qAE4drcrdh1hjo/XU//cIApI6p8mAftamDVszE0LfWPdrXcZw77/Aa162jkbeAQbSTvIVG1YWUF0IL+YfU0zUp9CkH82C8hFaJr48m7IngP8rDoC+Ot07XnAlVTk3/QmXTirxstMJXkTBZH1R4X3WJXUVdN4zGS2hVQxAkIgAAIgAAIgAAIgAAITI2A+VUO456oWbdoHVozFUUrf/nll7/85TvuuOMTn/gE+SZOnTr1W7/1Wy28EovF4plXz9Lvby70URx8A9VkWo6Ji3aeoJpRIHBDaGkoSR7lsDsjQsdE8CiHdjGwF0+QD+LwPf4xEBIuT+/s2GdAojypjvGOiZ/6qZ9aLpfXusPHWy5ffPFF/huiomNCr7iUS0KtuuzCMlh4mXUXreR4/mZhlq5PozjZ03AdK0fTS1fjMglXgOyCq77JIbzgFpP6mmmsaal9iyI5NEwyVYZFEhYn1o7geX5qka/bpa+xPBhUy02Bs5UNahkXpRfa2unxvHrnqHr5o8lXZ6kW7vdpr5LLJASg4LBWuUiurxmXpCOpIBWJ1V81Tf2ES/jzokpKuaf7JRgK3kCOkBwkjEril4jz4W4ImzEDQLF1n9AFErsOMBpGFWBiF5XSksZoJu4ybxPCIAACIAACIAACIAACIDBxArRjon49B3VMKG/CM88Y38SJEydeeOEF45V49tlnF60O8k2Y1DUdE198WXk0Rv25ULWFQ/+oafn/pJ/MoxbmiYzo5Zcsrn9qY9/O77EnO9QrJOzTHM4ZETsg1DspTJx73Ls1WcbL5FGOa9kRRlRnJ06cMJsmTKw0gpZYD4H6eFS9q4AW7YG/Qk6sFmztVme2VDnbRlK7uq1djZL4bjHO1qF20UofhpE6TQq0GfP1uW0IW9f7pj3/qImZL0y/LsL+Wy7NAxs+tlCO8i6F1YrPTfG14LNIzgkSNpvcCqqKUrFUV7GqnsTQIdaS3ooaIs/eKoeMQAAEQAAEQAAEQAAEQKCEQKO9EiafoR0Ti8XiS1/60sc+9jGz8PrN3/xN45U4d+7cotVhfBMmKT3KYQIl+RXbT9i/JTvEBDfrQ7x07NgxLuenh+65n2U842CkENe6Q2zS+fPnc/spxPgQggAjsC5r797boRwuK/a1sG5CEARAAARAAARAAARAAASaEdje3m6WIPmCvGny8kc5Fu545ZVXdnd3n3jiiVOnThmZ8VMcOHDgIx/5yIEDB1zEWp/PvHq2Vjwp0kgvv1zO9ogcEz/njhtvvDF6WOOrX/2q81rYz9k2GhUHgfYEevdLtK8KUoIACIAACIAACIAACIDAPAlE69CmjajpmFhM5oBjomkXIz4IgAAIgAAIgAAIgAAIgAAIgAAITJcAHBMLc6zNoxzT1TXUDARAAARAAARAAARAAARAAARAAAQSAnBMLMwBx0SiGxCAAAiAAAiAAAiAAAiAAAiAAAiAwOAE4JhYmAOOicF1DQWAAAiAAAiAAAiAAAiAAAiAAAiAQEIAjomFOQ7dcz/+QAAEQAAEQAAEQAAEQAAEQAAEQAAExidgV+Yz+Rjq5ZczaT6qCQIgAAIgAAIgAAIgAAIgAAIgAAIgsEoCcEyskj7KBgEQAAEQAAEQAAEQAAEQAAEQAIELnAAcExe4AqD5IAACIAACIAACIAACIAACIAACILBKAoM4Jg50OwblURTFjQ+dxl93AlddddWgPbUGmQPRQJ141VVXdRtjkLolgYE6dI7Zwrp77DXAFGECi8ECDlAPkUAqhKqkTHISsMqR6UsOwu1IDuWYONH2OHDgQLuW1EwFx0R3l4TJASZXqXJAVImoXQTjmOhLk5FPTQJDD87tlGFVqWDdPZIHTBEmsBgs4AD1EAmkQqhKyiQnAascmb7kINyOJBwT2D3RkgBMrtLkgKgSUbsIcEzUdCX0Gw2OCa6usG5Oo2MYMEWAwGKwgAPUQySQCqEqKZOcBKxyZPqSg3A7knBMtFyW9zvjn2NuMLlKkwOiSkTtIsAxsZIRA44Jrq6wbk6jYxgwRYDAYrCAA9RDJJAKoSopk5wErHJk+pKDcDuScEzAMdGSAEyu0uSAqBJRuwhwTMAx0U5zekwF6wbMHgmIWUHHDBZwgHqIBFIhVCVlkpOAVY5MX3IQbkcSjomWy/KVLAwmVShMrtLkgKgSUbsIcEysZCjAjgmurrBuTqNjGDBFgMBisIAD1EMkkAqhKimTnASscmT6koNwO5JwTMAx0ZIATK7S5ICoElG7CHBMwDHRTnN6TAXrBsweCYhZQccMFnCAeogEUiFUJWWSk4BVjkxfchBuRxKOiZbL8pUsDIYodM/7Hhf/qKx3/c4pE4EkJnDhmJzIZ8/7HieTe/XsOROHJCZw4SCKGl7ztAvYAwcORAqJ05oEctgpec7k13LHRI4G6TCsm1BUBgBTRAQsBgs4QD1EAqkQqpIyyUnAKkemLzkI90KyPkY4Ji54x8T2H9zy2VPR3573PW5WKTc9dJorEy1dbnzo9IWz6v5vM4jIVjkiEi4WiwsHEW91/XAXsHBMcGNsFN6T0edKk19Lx0QXJayv6hdITMAUOxpYDBZwgHqIBFIhVCVlkpOAVY5MX3IQ7oVkfYxwTKzCMXHzW4vve8/VD62i6KRQs6jeeuw0+SaMxKxS+JKbyy8ox4Rp+C0JImOrKSKy4Uk4Jg5tFHu3jlCdGgW6pK1RUBewq3dMTMmKmzkm9CapFiY/RcfEka29on7XVt0uSlhDxy+sKFOCqTSjKIqNQ227gFQIOmYQgoOoSuuDRbWktr2oyNq+Dm3UTyQClIRTGkmk+pXLaOgoj2auro/+1GntMHFyDHsqbd7aWB/CZDDCMWG9A9/2/ieK7d3vvO3zZopfbO+qv50naMb/Hbd+vtje/bb3ewldahyY0pLmugdevmTnD/a873HjmDAW+DOfetU06oYHT/3sp141whs+9epNzK+RW3V/x62K5Hf/yueNORiSf27nCbKO1/2yIvkdt3oJXZpm4MnnT/93tx6JEL3w6mumti+fOffy6dcMopOnrNBcmgSiRvfIqAO6pI2ykk67gBUdExesFTcaglqbfM4xsUqTz91Ka6tuFyWUlHqxShpihUYUTgem0ovaayyZEKkQdMwAAgdRUdYHSwOjYVEHcUxMZyQR+7xCSENHRTx9eX30p05rh4mTY9hTafPWxvoQJoNxfMfEY++9tLjy4InckZv71mdbHrMoinQSb9Yz1hmxvXvjQ6cpXCSnRpJm0kAyJcfEnzX2pofV8xrveuTlWz6rXidx40OneFve9WCDd0yYSTnRWywWFC62d6NTIynvryZX2b1SSFZ+VUjARadeWyjHxL+0iF47dy642uQdE2MjanSP5K1aLBYVaTshNUW1Bps6Ji5wK+Y2WxluZ/Li4Dy2Piu9qaF4FaobKHprJQxy0ScTpZFWdDDJRGA26f8Mi8osKiOwjCeChdWovyA4iCznh6XGuOpayho3iGNisVjM2GQYHQes+WeTTGbMqhkYrqI83CyXFrHXl/AUMY7imFC+iOLS9z6mnBHaL/FeJaDDXjGuCnHu20KNcklEx4RZPJM/wgTM5J47Jiqn+3UjTMwxcYN2PdCOiagV7/od+5qJSC5uBzAkyQFhAqYvuGMi1zvd5OUGVn61ouSXTqvXWxKiKPapJo6JsRE1ub1F7RrBMdEabOqYuMCtODLP8tN2Ji8OzmPrs9LRGrbcRO1bK2FsL84PO+4AWINGWtHBJBOB2aT/Mywqs6iMwDKeCBZWo/6C4CCynB+WBiMJa9xQjokZmwyjI6pGLWGTTGbMqhYLisRVlIcpwlCB9SU8RYxjOSauPHjwyqK48uBj77300vc+Zv4rT8TBKwO3xIkT4ty3R13LOSZoHk+eiNd94MnXfeBJOs1vlLhzD/lYirf+iH3Y4XNv/L5iz836kn2dBI9WsHdMePn3XPU5XY047dVXXeJKMPnfuae45I1XvdUIXarTNz7ksyp8TarfZHG9fliDVt2EojyQc0xQZ5En4ntvf+p7b3+KTjMbJYx5HNpwTWX7cL2QPzKsEthj45BaQ7tDv1Kh9Corq977F5575WyJY4KaHAX6RmT2MLhm+p3KaXMYjaJgz+B7uWt37bQhUL2bwtXE5pVmHvEQTluDFR0TpLFkttOxYmae2njtsBAbO4tWeCv+yHu+hyzah1la3RV7bq42doOoncmLgzM3Z7LxeiYf6LNSIqOMRk1YOFQ9r2ZKsVm0QCcDtRcUj4taKyHPxIRXTMO4ErfsWOhs3HhyrLW6cVVPew/ZMVQJHVefikR8CEnbHEqmANM1RT8CzzXEh3XzU1CsyYqXYeFTBRrrI4QExLMpYNEVY2xq3UH2bm25txStEQfVlMggWNdnTYAToDAFFF+O1+mPqBChcBrqYVrim+DGCj0wM1w+hlIh5phQGbB4to0UnelS2HzxbBpMoj4NkGwc0k2z6kLN1AS8Dnm5kzHOa3ULC9ulOrW07ZoTAeWR2Tyf57mXtKvYy8N8GrDO9zVtJh6pTClPVVK/iWIczzGhvRCFck7obRPWHzEZx4T53o9/6Wpm8LTCKbZ33/GJk+/4xMn/7RMv0frHrCK8a+Dmt7q1hFozuLB1GdCy4UcuI8eEdjF8xCwnzDLj9I0PhWn9OoRWHdoBcdmdqhrq6iVvVDkooVQTSpUNtFul5FbdnGRux8TDx199+Pirn/7SKXZDMvc0N0wp6zNhFXIWZcYuLTfjFUsffI9aftXeZ11ZQSbySb/3yLaIMiji5nh29s5g8XEPPAEKsesbCXFh5R3Z2nBv0PTZUyamHOolLpd5krQ1WNExwcHm9j2txoq1eboRQBs4c0xEA4VgxXwQ8OFwoPCDT9bSaeBqZ/I5xwTH3sTkmX4ZheCKQ2EKkNJwB4a/6vUyVHufLBdqrYRphhwFuWlMNDottnelAbAPGmYiaAxYkTEmKRqvKs5e10E73AY8R7XoXmEqELb2vkX8FqHbHINSQmH08zlkIqRVTyRT1DHfGtXCqOmOg77k9Mi9t8OnnKWt+Q6lfvL6wrRENZNsQEXlCSlMgezdk0rJBqahHqolXg2ok30Dff0ZL3JMZMcZQZd8TtnQNJiEOkBMepx0ebw+91malcCErIcamdExbTsUm1lSGF+2QG6YiuH63tfqaaPXI2amHl0eKfWS7oAVYhzRMaEf6DCPdExwxwR3QNAzHcX27kX6/ZfRdJPm9zfGD2UEzgW3DjkdR6NUai0RHHpNQpmYBYbZB2G8DySh08+98ft0mPIMtmxUL1FufOh0+Srl59wvhvpW6yJKHBPRTmZD79ver952GZFkNyVvE1roTrllqQtObiwnmDbQJTuqu/HJFMKv8jCrQj5Yfo987Zx6A8We9z0eZdAzoiyKsDlRNDrVIzbXNn0bqJdWN0xFtYef0ds5h5x5xEM4bQ0255gg46XAJKw4Mk9/Ghq7lxvLdVe9M8L4Is3OKXd1LJMvcUyQaVPAvCqYnxrb90pAmkkirow+bHTLT1rYIMCCUW7RKRUhBVorYZoZtTEKjERDjYoE6sjWXgrbOaM2X2OyPKYUHt2i+4SpPdi28V6RmLaIoDgGcw8xWVAOuQhp1RPJJHWMGkYBXe9cMylWLkLS6lQwCQ7p5EHU9qiZfPbBw+uDhVpi+o1O0xGY2w85JlQqlYZPEiKG0WmqH0wyCVWJK0xMKKBrHEWjU1Gv/CRWp6WcKJWBEJ0yMmlwEqyidtVpOyWJG0tQKGAazU9Z2Ad5RlJYrlVKNJZMgjBvkKogNZsCISW5sZnIPD9u32JYzjmGlp7XxDi4Y0I9wXHppeqVEmaPxMEr6YGOCT7KcfnHX+QeimJ798fvf/nGh07/HHsd5vUPsndDCgsJ4zII1wxRNDqlgF1ahKuRRFj4zRF1HBMUp8I9ccOD6nc3co9y/NzvNHj5Je1k/s0nX+bfEBbbu489d2axWJw9530TJ8/wV0hmrEUwRT/bdvfBaP5I5qDydO4Jnj8PU+SywIlT6nc3CFEU9exr6g0U9R0TJnljRFkUYXOiaHRKgaD29dKqWG7F41P4UDB2BflXnLQGKzomjO9silYcWbo/LR0o1OYpbcV9OybamXzOMdGTPrP7bHCPNNlrFbQ6yBSPgpF6R6elathaCdNc2w+AaYWpafVpBHboHBOaXLJK5+VJYS5L25mXTALm9BwTk8AS96nTED/B1f0aRaNTUkiSGDWITvO6sVgsJsHB1lAbhhlSxCakQiLATZKEUfzodAZYqCWmrsIpzQJY45xjQkVPJgksnso0Op0+k7jCDU0mTi6BJcxR5Oh0+qzKhxFbf2ptiCJubIZzUATLygd5RlKYy0qRRhcnMXDFla+iFMcPmdsWenaMLk8phbksIlV6WhPj4I4J/cLLx9RbJZQb9cqD6u2Xl1555bRefhntBWhymjxAwXZo+x0T2Y3cKjlF+5HLpC9CP/KeN9pHx2kNEz0AYhwQuZpUeCVMY//PT75iFt76VzmiJA0cE6U6WX5RmQfto2UnyjXnXRFkD0e2tuwP1JNdUUCtcMquMvsrrxO/+szL9jUTqQPitXMNHBM8z4bhDIq4OSqatHmSyxeHNpJdD6o2PI7uBIOesFtXUJqWJ6TMa7WvHdjUMdHEbCMNz9kOWZyJz61VXXJviuHy07IVZ0cAoYjgUQ4znijHhPUz6jfO+IGiMI90PXSayaPWyactTF50TNTqYzkS15lDW/YdE2wFbbS43Ja90fPcmOrKRcfSdkoY59LpnNe/LY1g4u9mLbLxMmmQiuS8PmNYdCd4SWJqhh4dE6UKmuxA5Ua/9dIx4WZa8w6yNhyEIUXUdi4sM0npCZc5DkG6zsHUQZ8IuLj9OMeENzmtT3YOwhnOkYmqf3uTCYYUGkW9Ialxy5/NnZVviR6PeXOCtofTU6NwNTnzIljYB5kWciX1YbFWyf1DEkxkkpDTxhxVZ9BBF5CQ61+oilSOiHRYjKM4JsyPcejfCFVuiUvLfi+077lvrF/iyy87LGlyr5yM1hv6aQ67w42/+s5szLYXnIciTqveSWEOuwgRHRO5msjLkrTJP334ZfO1P79kJPw/XRWfU4hxNzjXQ8sGvcKSGY4e3B0CL1eWYQ4nU1m4HRKlV/0w1qCCi8UXT55Jd0ZwONHVvhHRIyphs9lwYpvjGx++bsoCUsk5MxfWqeW0PuXejQ03DzPzD3ff9lEo87p0W4Dt1TGRs53YEtUzWfZobMX6dTAmMU+bFKFdGK4U44BQJkxvwP2ey97qXoSp015GVfKRyUjLA01Nvv/B2euM1UEScDXzKuk01UaL3hzm44VqX08NWyhhvYxrx6LGOwMiQV0afvplJrxmbkHZFCwfcbYRfqfp07kK1W7KymHy5lE7Ms0nx4RxzBrjYyqk0jvNm7uOyTdT3kLdx4SsWE8Ovhtdx7qbmep9kjGhlREYr0scns+XcZuN1eiWSHMw3yyHhtmXc0wwWB6OXXgnNjUbJsNPutZMf+z3hdEwQjaV1TE++DIT5HRUnurcTfJ92MdiihncDZncJgstvZ5Crvy+VkZJslzHizfWwzKNniDGUR0TatvEpe89+Jj+3VDz66DJ//7nvqHCDeCYqLvyL18kTOHq9Z9Uz3TwmvyM/sEOWnvzS32vumNrCfttKmfP6n0TvDZmbxIh4pf6RsTzXrdwU7B9OybGtWL/KEeXclOnRuPcGpn80IPzynW6qRKuvMJTrgBgir0zPyxsSi+2qJ1wfhzatbNhqjXH0kqX1pxJQw0pjz55VvOY55dAniTh+VEtxzi0Y8I+wmH8pZn/wQ+GDj33hWOCOxfS8M986tVEON6jHM4dXzIsrP7S86+cjSox1qMcUbHrdtoI7NwcE5974/fRjobwyZHgVTKNPAs9OCZufOh0fZMfenCegkI3UsIpVHjKdQBMsXcmj+XI1l66Fasvy2lTr9ic1sLJc2jdsk4J1wtLP7q0Xkw6qUdl4mmzmt8SOgU+PcKzpFqCcWjHhNsR8dh7L7W/E2p/MdRdiD+HnvvCMZH4HarXQj99+JU0Vd/bAWZpWjRmffGEerVndPSNKMr+gjjNgZ2bYyJ4aMu/RaK9V8L+rrB7/qvailMTLpGIJj/04DxZhc4p4WQrPOWKAabYO9PCou7G9hjIKyFCWCwW0+KQq+Xo8hljGUyXZszkwtWfec/zS/ptpdq4PlQNxpEdE8YNoX6pw/5IR+yXODH03BeOiZLVSKNLWHWXDFLmEhBVImoX4aqrrpqfY6KTD6Jnv0MjS6fIQw/O7ZRhValg3T2SB0wRJrAYLOAA9RAJpEKoSsokJwGrHJm+5CDcjuRYjonEAZETDD33hWOClhkdAzC5SpMDokpE7SLAMdHReNslH3pwbqcMq0oF6+6RPGCKMIHFYAEHqIdIIBVCVVImOQlY5cj0JQfhdiRHcExUvWZC/1oH+SmGnvvCMdFuTZKmgslVmhwQVSJqFwGOidQeR5AMPTi3U4ZVpYJ190geMEWYwGKwgAPUQySQCqEqKZOcBKxyZPqSg3A7kuM4JpTv4eCVwdMbyl1hxMG7L/EoxyT2bNdZ5MDkKk0OiCoRtYsAx0QdC+09DhwTXF1h3ZxGxzBgigCBxWABB6iHSCAVQlVSJjkJWOXI9CUH4XYkx3NMnNC+Cf3qS/2OCbtR4uCVcEzM8+FzmFylyQFRJaJ2EeCY6N3pUCdDOCa4usK6OY2OYcAUAQKLwQIOUA+RQCqEqqRMchKwypHpSw7C7UiO6pg4ccI/1hE+wEFPcmDHBHZMtNPkKabCqDRQr8AxUceP0HscOCa4PsO6OY2OYcAUAQKLwQIOUA+RQCqEqqRMchKwypHpSw7C7UiO6ZgIHuZQuybCvRLGOUFzX/djVYN8XoWjM4HFYtE5jzXPAIgG6uDFYnEAx+gEoM9cn0GD0+gYBkwRILAYLOAA9RAJpEKoSsokJwGrHJm+5CDcjuR4jgnliaBtEu4NE36nhAuRY6L3r/tMhkVRXP3xE/jrTmCxWDzy9Fn8lRAAohI4XS4tFotBHJbItJQA9JkrLWhwGh3DgCkCBBaDBRygHiKBVAhVSZnkJGCVI9OXHITbkRzPMaE8D/rlEmrqK+2ViHZMwDHR3XcwaA4wuUqTA6JKRO0iwDFR6kAY6iL0masraHAaHcOAKQIEFoMFHKAeIoFUCFVJmeQkYJUj05cchNuRHNUxod8wceVB45/I+CawY2JQb0KPmcPkKk0OiCoRtYtAjol2yZGqKQHj6oA+c26gwWl0DAOmCBBYDBZwgHqIBFIhVCVlkpOAVY5MX3IQbkdyPMfEY++9NPBFZJ7mgGOiR9/BoFnB5CpNDogqEbWLAMdEO26tU8ExkaKDdadMWksAU0QHLAYLOEA9RAKpEKqSMslJwCpHpi85CLcjOY5jonRrceCu8L/KgUc5BnUrdM98ziZ315uKt90y/Asy5oxo0m8PgWOi3XDfOhUcEym61Lo/ev0lpbe6onjLXWk+jzx91if0Ee5608U3f9SMUR96Wy6hmNschSnMObai9zoDi0EKDqJqAUuKBUxSJjkJWOXI9CUH4XYkR3BMuNda1vtczY6Jz31taY9vPPhw9GrMs0eXy1eefqX7Sn7NcpBN7kNvc1PzS975IC1u73qTlTKhFNNP0As+iZeSP03CyMWg5N9//ePMHtKYzDEhVcOlTbOiFtUKzBlRrQY6UGNHzjsmunbZqlo08XLLHBMP3vz9zubf9CHShNTozj7ibZaNA4MIzz7i7To7PgSjjW4Cqz81JBsQrfuWt9jB55a3FDo3N9Q8ePP3W0fD4++82PFyn+F4ZUokxwSRdLGLoiCfxfDe1XE0U4Spihb6kYDwniVhpWqJeTYRjsg8g6V2YxvYZlbPx1GA8lI6cggs3fv+nKHFEwY7UgVWmehhPk/VO0FaP8QxjfVdwzW2WS+IWG55yzoPFOV68sjTZyUm0ZDLekHZMlkTl5OQ9043oVchMU9eejM1qGSSiyCxKjEKyS4cQK/wUjNlY5Fi5qo6UzkIt+u4WTkmbn6rHnEveeNHTrfeTyH9KsfZo1/5ypb5qQ7lofjaAfazHVtPf2MJxwQDQu4VyeRoMm3meWaoVXcFO2ypkcgIxZhnaVrPtFlM/vg7L7bjuLoN26mGuf287U1ubaAzEWO61cLTcjVM6WYw9QNu8/nonBGNdGtkHd2gRMkxIfZ+gzzb1eQCSWWmurI+F2YFHpm8bJ7JOJCz7nTEqB9T1ySzdM8atVon2DrX7FOJhtI345IIHBP5zD96/SXpCBMsLQhv8/GnZkOmEE2G+aG3JS4YcTzvrBtCQWVaNBoxCUv9xqp1lPW1+TuvCHDq42Q3DuK8wjZZHBBioaQeublKUdScgbCuyQxWlWomYQkay2ZHU+/iysbWjCAxUSbjnc56PexORXOob2L1Y4pTTbH08XoqxyrR4frGIjYz0EnXj3JMd3U8CIOWCMLt8M7FMfG5N34fuYF7d0zwLRJnjy7ZpomHv/LKV77y4EnsmOCIbFgyOT6a3PWmQjuGg0l5eIewU20X083pA1WuTJ5MGqQZg66Yj0mOCanCplb6G853Bj4OHrlWeM6IajUw6KkRF06SY8JWONv7I1ZvVViGK7fUMUHreW/IviZkdKIhDyF8+vF3Xsy/kmKanDdq50dgkasUpty6XYbJUOO/JqI7WhCwfgqzw+LBm7//LW9z281ctLbLGN8pVU0bP6YEM9+Ppv4tVEvWDbEgUdhAPXphKGCpbzLqq+B6tjk9fYjodeNgfYVRnupUHBBioawJzsAFlcjeg0hjKaDIp+uXMQAAIABJREFUy/kLtU26ScCiJ1Hk61QelniHiFDhOmXNJY7EJJl2BkbkgFCnBFdd2o7CoO9Kb5RBTFe3YYQSK1uioMOxXeiYotDW1jezxFi0XvmYc1GzmvUE4Zqgomgzcky89UceMu6JIR0TwY6JVx78yvLo504cgGOi7o4JNozSVzThA9LCeEcx1R3aTb5pRlWVPM0wlRilZ3I+Y3N19tUwcwXlYmdJXLQmd4iSUUlViUqsaqOPOR6iNu2NBpfhTuGYGI6tmLMxS1Gf/Xf+oRqbfLwFhVetfAihmyqZOtMcXS8AMkZNU9LO1h1tdqDhzAbYIkF/K3vJm95yyfdff1fqSTHf2ar9Zbo5HzWG/5a7zFLKvnuiSW3Fbp2OUFCtbD/aoamNaol51heODlzAUt9k9LtLrP6HqWLbHL1dTRWvGwdpXqGabNecXpFEoage4o3YYQwz9HdSLw8GHLf0dcnrwxGwBI6J9jnXr8PUYkpMUg6phE32QmOxvdZRyDuXJn5M6HWDCYdmK7FKRldbH0ssrKcodArvm6miuYNcpS4anwmP2Pah2Zr8Qbgd57k4JsyzGwM7Jh7+yitL5YkwTyuQP4IC9BQDAld//ESJyanZs9tEGvnsw3FNf2XhYnINVqn0F4PZ5LqIQkorFhHGTBwTrMJmM7aZz8VZNRw354yI3TYatpr340BhOCYGApvL1swqRH12S2gVxXsBEvMUDXkIoXkrgd2pq6phd0+QLVPANVaYpLpLZVYg0rjlLZnNGs6IyHNhWDm3Dpu6KefFXW+6+BL9Tgp6qtnN6+ynNL1zRdSp/NTiCDDVvNZtwGb9aG4u/pJ5dSjz+Jj+FVVL1g2xIFE4OuEUi9guURi8VLXUNqemDGl9OnKgDBUot+GIxgEKyLf+Kk3geZqCeIZKkgyGfIIU6GRDBUuxmCb4wcI1lgisfUBiko7wTJL0jmhNHYUeuy7OPUgi6UZDHfA5N08osbK3vEiH6ZQCsrFQHaJmOnlqLIEtuGhdGjWptCDcrjuGdUwU27s1/+jNmKUvvxzQMaHfJcEe4vjc15buxRNwTIiOmJzJqaHHLQaUUoqeZj0AxTGDUclt7sonNxqvJvrh3ZcPndwqWMzAMRFXg32bkcuKZ1sSnjOisiVZSZPHuQTHxDicqRQz0xX0Wc0/aCnOnml3tuyNTjTkgYRsQLAmXGLUqglt1vkCDfV1JdEosSDmhqA1BKvzR6+/5E0fco/gfuhtyoWhnunQv+ihv7+9IHZMsC7jk2DSyZaqxTinuuELqiqdqjFoQNCx+iZT3zadtQ7ali6Zd+IQtI7NK5wm+Ls863RR6NVDzNMJfVonMW33Gsvf6nrxze+sNWgI44mAJdgxwXZlhjXp0hcTTysxYW4Iy0F4fMb3Tn0Tqx9TlxtPNVmn+NKZcGjUEivJMVFlF5HClzRTv2rU3yJLYwoKPzSQ3vMH4XZIB3dMPPOC9Tm8/oNHyftw4sSJYnuXTnl4JY6JAyeXy5Nn2fJbPcQRH85PwaIJb164cK6KJqeGV/bllVJKNqjR5klzg49jBiOyMIHgyZm6u5gueTRKSjG9YyKpcMWageVWPW7OGVF16xqh6DcyHBP98qzMLeeYUBMLZu+S6TnzFMeBIYTh0l1X6S62ldR5AtJliRtAKmmYCJJ1+5eZVWdCvga+5V7X4Zbrb/6oey+vdlJoYyQPhat5dRENW7TCDAWYQj/y31oyr4jXc9z6WiTmWV84Ok8BS+3GNrDN0dvVVNO6cAjLMsOReJd/25v8hnM2SojqERBzQ5wTSsOguZ/GMXXd/GwkrGr1LVjAEjkm1HtG/Dqwaf5zjC8xSRwTgRERZ8cquOrSdhTqfuH3yoStK91pURKB6tlbQGJlM2c63MRYmjQzmXv31q4R0NUsAoRrgoqiwTFx4mr1BEfwSxyRcwE7JiIg5lQwOfm7RzeycydFJuZH3S+MMv9xJrlbDqnpVzhTZ0Oq3iknxHRTAbkafnwMsmp+w5gzIg8hGjKmcArHxMi9kHNM6H2YNPF1OybCJbczT8mQ3WPeqjl+5tdDTPtQSfClcTrlYovbXqzbeRPq9A57H5h/XsNv8XVZ6e+U3DKJPsMRr05xE48jDJVaN+J+7EO14jzFgmTh2KNiDovVk3KTCZS/3DbHbldTbezE4enHpXmFb7J4l2dCNRylOlOSJ0ubm4FUlF6Tj4SFvSvB7stosx2sZgUmGE1iwm4olom7Z/UxntQ2xqQj5NK9bgyNV2JlSw90mN0cRbkXyjNqyQDlmOO1fWi2Jn8Qbsd5cMcEbYt43QeeoDDfMXH/559b8Y4J9cLL4KDXTJgVOBwTdR0T+mlMmjz7x4DVGGQONzTLMdX9wx585p0mN88VR3m60dOPklrCZvaudHpduVwNPzhGWTW1MWFUypWYtlGOORoiD6Fpq0eID8fECJB5EcbUBH228zxrirSulozOP0/rfjNY61iq+eyp7JYx/U/Tu5cUuMEh3oytSqdhoZnOpzTcCyOq8xG/LPKbI1Rt3aMcrOaqR8LNw7yPZh1OYermCC6brqol64ZQkN51HCv2yJBlLPVNht1EKmwzUrOJnXbjkLlpujaKd/lQmKpHWZ5h2rOSxvrk1uXhKtNIwUQsamzxR8vBrVE1JhVZYuJpKzB8bpmbSdY3sZoxmSWazjH2KOlG9e2jL+ASK1t6pMNUoij3QrmZjD/Bl2OO13Zq0aABEG6Hd3DHxFzeMSGuvSEsIVBicu10ccRUbsdEq9lA/XrOGdGk7xAljon6vYOY9QmYuRT0mRNLadR6wYSekNEqUWXop2h8FRE7Jmi9EaQdeATj7R00nMIctLi5ZA4spqfAQdRYYEmxgEnKJCcBqxyZvuQg3I7k4I4J2iXxFz7Q/R0T5rc5Ov0viqJksY1L9QnM2eTgmJi036FyLINjohJRvxHgmEh5znkAnJz5A2aqYI88fRZYDBZwgHqIBFIhVCVlkpOAVY5MX3IQbkdycMdEry+/7OSSuPEhlRyOifquh/KYczY5OCYmtzJpNH7BMdEIV/fIcEykDOc8AE7O/AEzVTA4JogJ1INQ8ACwcBomDCYpk5wErHJk+pKDcDuScExc0L+sUe56KL8Kk6s0OSCqRNQuAhwT7bi1TgXHRIoO1p0yaS0BTBEdsBgs4AD1EAmkQqhKyiQnAascmb7kINyO5OCOCXqU48/fKr/8kr8I88SJE6U/F4odExNyo8DkKk0OiCoRtYtAjgmzYMb/cQhAn7m6ggan0TEMmCJAYDFYwAHqIRJIhVCVlElOAlY5Mn3JQbgdycEdE6//4NHX/4r6u2jniT9/6xMm/Bc+cLTY3n3dB+xp7V/lgGMCjonJbUIuMTyMSiVwulyCY2IcT0RUCvSZKy1ocBodw4ApAgQWgwUcoB4igVQIVUmZ5CRglSPTlxyE25Ec3DHR+h0T0Zy4r9MFDhAAARAAARAAARAAARAAARAAARAAgckQmK5jYiBERRE0eYmjLYHFYtE26YWSDogG6mmAHQhsebbAzvmABqfRMQyYIkBgMVjAAeohEkiFUJWUSU4CVjkyfclBuB3JYJW+kI6b9SFdWRw7dozL6fTAgQPm1RLF9u7Tz734zAsnnnnhxOs/KPxcqLkkPsrBc+4xDMfEsqcDJlcJEogqEbWLALDtuHVMBewcIGhwGh3DgCkCBBaDBRygHiKBVAhVSZnkJGCVI9OXHITbkRzcMVFs79b5o3dk0ssvF8MccEy0U5Q0FUwuZRJJgCgC0tcpwPZFslE+wM5xgQan0TEMmCJAYDFYwAHqIRJIhVCVlElOAlY5Mn3JQbgdyWEdE+RuqB+AY6JdR46fCiZXyRyIKhG1iwCw7bh1TAXsHCBocBodw4ApAgQWgwUcoB4igVQIVUmZ5CRglSPTlxyE25GEY6IdN6RaztnkDm8Wm4eH78M5IxqeTocSALYDvPZJgZ2zS2kc39lX8ZLmzKjjE/oIhzf37Rw35Y00XPHGjR1OYY5dg0mWByymW8BBVE9gSbGAScokJwGrHJm+5CDcjiQcE5rb4U03oaTJ4NJPFotilGVsux5cWSrZ5CSSyyVJPV4vK7www1xK7tP7uTz1pc9RiSg5xWQzfbpYXY3GqOeMqHFjx0wgg3V9Hfb+mPVa87Jk7MxoycAko+OWyLuILLBHISs/HrtVcaYkVnE7/LP6V3elSOPwps3cDTHu8/jOPtu+tFg29PhiyTFBfNw9qnAN8JFnHxJhqlb51lPnkIgkPF6lFol5NhGOCDuDhQhUNZbpGoNFyZlsxEa1KKojB4YhncspGpyjrl4iJGZuPMnnmaT1SsyA+/RJ4bUBiVh8TddxoKhkIzHxrPUYynpBZUfAuJyEvHe6CSl1qm66Drykymb2EkFiZTJWdZXqI8pDodTMoANEzM6semnXdDIB4XZ9MR/HxKENNy/bu3Vk0fqQ3jFBU0AzRlm7oSlmO7Jrn0oyOZGkGpTsGKfGLINXjKmG52Q0FJMf39nnu8mNaWb029wMMhFjutXCsn412vTnnBG1ae9oaSSwYu+PVqMLoiAJuzdpPbkyVikaXc6Qncn7nDrG1MN4Mo6YHjJaIlxUF+yQUrMvJRoqqRlc3BCjP/OZe38FK9VP7aR5NIu4PkEZpnA/6KhaGd0QCsrEHBe5hKW+dXiLqrLNcVvVvLRuHMR5ha2EOCDEQkk9JJlJV3MG4oYbKaOahCQsQWOZBtTMcvbRJCaqX/zgrodXd9pxPFE5J5NbUShPNQ1uozfCXWng3sixKopIh209xHqGQrmZso7L0oHbPG72INyO91wcE4c2yB2hPBQbhxYtD8kxwdF5W3EzS34VYU9AMjl/1U/r1Ljl7gJ6GwqduNilzCuT+9Q2v0RQqxxfYR1KKukyafI5Z0RN2jl63BKw2d4fvZLrV6CEnQ+TEnuSiYY8hFANMpk5nr6yEzgubS/xZtTsOImGT+oydJ90JfI6OHc7fdqqm0aoafMmbeezcTKNoxLmGJBg5vvRtLCFasm6IRYkCsdGK2CpbzLWRRbBYk0ggEw2zWA3DgGIoIG6k+MBIRbKmpAYts84y5UuUEAlkvP32eVDAhY+j9FZ+8lXPp91uiIxCWxGNTYRKCF1SnDVnbhPzcqduM9qoY7h/lFJLt2+nVgJXdRBPyVWtsCwivl6xsbC6+vzkIylvdrzMiYeBuF2HTQXx8SCHYc2CvJSMHG9YIVjwnuY1ZDjjl5Wqcs1O0pMTrWUSIZjkh+rCAfF1LeLmHlV8jTDVGKKYvIwU7ps7+G9df2cEVH3TDFQApb18hRrPus6idj9/CJjVXYdHV613TSE0E2VzEjCVvF2FiloiCCq7iiRRoXbgd1J9Cizb3Nz376dw6knxY1Bm4ctXy3YPNxhFVPdohXGEGBm+9FW03dafS0S86wvHB2QgKV+Y/mSN0xl2uEBjt6upgV24+CMSY0IzALd8jTkoCJvHvarVGNxO8476MaTXJ6qZWGGvq1e7kO5VbJPVRISsASl27aU5LB+lyQmKYdUwnotNBbbVx2FHLSf8freDzSCRx4yLLGy5SX1scRCuSh0NfbNVNHc4QxQHHVd0rX5BOF2XTlDx8RwOya0+Ti78TyV2N2OvPSCD5WYnPEwGJJ26HK4wnHNuK6DyYKJSMyzydWFeKJh0opFhFOS8CZj7w5l1XDVb/Y5Z0TNWjpy7BKwce+PXLO1Lk7E7gxRGaMfJp2UhlPRkIcQapeos2VVgK0UKQYFXF9FtXDiqk+RBtvJKqcnz4Wplp6eHbfjoJm7KWSHN/ft09s+KLq5Rv+Jq1zK7KQCTN10207Wj+bmwsfzqP9M/4pCWTfEgkTh6FhTLGK7RKG7rVmdKbHN0ZvVuMCOHKg8BcqBoHGAAtyn4IVVmsDzNAX5tOZcxVCHN1otsac8f6povUCKxX4lROOEa2y9/NYhlsRE4fbwVSuZJOkddk1FNb3ZUejJ6uKoMqQqFPAxhw9JrGypUX3olAJEhgd8lcNmklyJjU5ytfdSirgmARBu15Fzc0wc2drb5UGOxSK3Y0LbUW4U58bYjvMapsqZXEwydAJwlHHMAJKLmE9uoqvxLew3lzLIzt6wbcwg01rViDOrdT5nRLUauKpIObDyPXJVtVy7cgXsynjI/JQt0pTLtN6bZ2Bz7uupgYRUIzetdOWpSsXjg2pCVOtaPSfQ0B4F91saJZnoIYcWDybA6qyfe3YuDvNJj0I7T0ZJ7nO8JMAM+yk8U01sqVqMs80zzLpMODpZGQvTVl/bVFjfNkdvV9MCO3EICnOd7T6DAaFKGET22bJkWhifu5heY636astX2/iZUrrIdT4FLNH4JgzJdTKecRyJSTrEC8Oo750h7kqaqB73WV8zRWHB8eBLrGzpQX3YiQ/6UHxLjZsZNMglc5/mYngWJJj1CQi3676hHBMHOhyLzKGdEu0f4jC5io6JqtF7Xa2mnc7YVKLJCSQDeP4OIcQMquOSuU990SdncYMYmamDiU4x/Z2nbjVYefWDc0ZUv5UriCmCNfWgPl5Btda9yBR7ZJASfCdznxqSSzeEMJxz6hIOs62kzh/g5odBFZr0YEpDfxHHFojluZGvQSdz1VFpDu/sHHfv5fWxyEPBo5YXMZ+rAkyhH+3Pp7pmua5zn1peqlpinvWFruDRPgUstRvrQNjKBulKZKO1rUlBXTiE5RgMik18qMeqYplyuorqEWQao43PfWTxip+N+Ij1QgKWyDERrxnr5TvnWBKTyBRiRq65rnfcp5a7tB2FxpEa3BxEJazh1nbV7f4psbK5suaK9cwYi9DMqJou42qzihLO8hSE23XbII6JxQBHtwc4fIUEx4QbeUKCx4+7WZBau67jXDBsb+MzweQyJP03km5Q4jvpWMEic5YpT+6GeHU57B2KpXL283pdpo3ppgIs76pqsOu1g3NGVLuRq4gogHXVCHrfCfHZCwEBe2B+zssnGx0zNt9JQwmtoQfVswx84UoQnjXBJNBw3oQ62bgxiH95yndu2B0TqgXpEY54dYqbeBwJJus8CvahWoluUO5mi7e5LgrHppjDYu9+XnlVbWMha4FfL8gAx25X0/I6cViK8wpfBU/Ry/i4wDj6YFmeQYZVwIPIrAJ1ghIWXnPf7XVyW484EhNmHXa4dQOo3Dssvu+ebkKWWuTsyxEvDyOUWNmScvUR5V4oN1M0FhU1GYqHaefqcgXhduxn4phQmyXa/xLHgh2CY0JNp4ND3+CV2djDDWLtEK9rKsHkZJJmtmdYOneCHDPD3Itdcp6lm48RZz9KapFP7WO6RUGjalABtQNzRlS7kauIKIB11Yh634nx2QMBGTszIrJPyei40VLEYYRqcm4PVpIlEGiIqmgapRarlEb4JVBZJqp+SbFskqynz+J9xw1dZbnP8FoKUzdC6MeuqiXrhlCQWdWF962xycpYPAKmQ6LQN8urm4/oZWO3q2l53TiwFks2FQwIrmah0HN0xMvyDNPqb0Ti0cgnl2rkKlH1KWLxdVWFuvpWZbU21yUmnrZCEhJn1xgrL+1JGPZK2jGRzozTHRIrW3KuPqLcC+VmepohfB+bUR6n6SOVAsLtQM/EMaH2SwRHay+F4JhoR+6CT1VicpNnM9Lsfs6IJt2HALuS7gF2jj2l4V4LwWMlYT0ZC+Zh8vQszoxiBWmT7GcqSGHOtCH9VhtYDE9wEPUKWFIsYJIyyUnAKkemLzkItyM5E8fEorcDjol2ipKmmrPJwTGR9uecJHPWvTlxjuoK7BwIaHAaHcOAKQIEFoMFHKAeIoFUCFVJmeQkYJUj05cchNuRhGOiHTekWs7Z5OCYmLcCz1n3Zkwe2HnngQan0TEMmCJAYDFYwAHqIRJIhVCVlElOAlY5Mn3JQbgdSTgm2nFDqlk7JkbqPoxKA4EG2IHAlmcL7JwPaHAaHcOAKQIEFoMFHKAeIoFUCFVJmeQkYJUj05cchNuRhGOiHTekgmOiWgcwKlUzahUDYFth65oI2DlB0OA0OoYBUwQILAYLOEA9RAKpEKqSMslJwCpHpi85CLcjCcdEO25IBcdEtQ5gVKpm1CoGwLbC1jURsHOCoMFpdAwDpggQWAwWcIB6iARSIVQlZZKTgFWOTF9yEG5HcrqOieBHOPo7WeAAARAAARAAARAAARAAARAAARAAARCYDIHpOiYGQlQUxfGT5/HXncBiseieyXrnAEQD9S/ADgS2PFtg53xAg9PoGAZMESCwGCzgAPUQCaRCqErKJCcBqxyZvuQg3I4kHBNwUrQkAJOrNDkgqkTULgLAtuPWMRWwc4CgwWl0DAOmCBBYDBZwgHqIBFIhVCVlkpOAVY5MX3IQbkcSjomWy/J2uNcpFUyusjeBqBJRuwgA245bx1TAzgGCBqfRMQyYIkBgMVjAAeohEkiFUJWUSU4CVjkyfclBuB3JkRwTT966f/+tTwZPZzx56/6rHwgko5zgUY52ipKmgsmlTCIJEEVA+joF2L5INsoH2Dku0OA0OoYBUwQILAYLOEA9RAKpEKqSMslJwCpHpi85CLcjuSrHxANXF7GnYhS/xAKOiXaKkqaas8ndfXmxcfvwrxqZM6JJ7yQC2NQeR5AAO4ec0nj4pr0Vr2m+4m6eA4V9Qh/h7sv3bD1sxqg7Ngovn7RhUouaBlKYTXNYy/jAYroVHET1BpYUC5ikTHISsMqR6UsOwu1IrsIx8eSt+4v9tz6QbqIYwzUhOybu2HATyr03fIbN/Lx8jHVsuy5cVSrZ5DwxTvLuyy1fJpRi+gl6UbC5uJT8JAmjrlHyi2/aZVjSmMwxIVVDpfXyKH+mHlWujTkjatBMhnqkVDJY1R1p749UpfEhjF+ijP0zWxe70fPyO4h2anS2d3RcNg54Q+5RWGK/XkOC0UZXi9WfGpINiDRuv8IOPrdfUejc3FDzma2LraNh94Y9jpf7DMcrUyI5Joiki10UBfksqoag8ZWkXYkiTJWVMA4TED4yk7BSi8Q8mwhHZJ7BUruxDWwzq+ftOrTfVB05BJYe+/gUzMQAE2Gih/k8k7R+iGMa67uGa2yzXhCx3H7FOg8UlXolMYmGXNYLbs6gkXF5bRPzncv7UUruVcjHzGtRM02oxCJGkFi5u49gFLn5Vajw9ZoZNFzTb3TzFZszQSEIt+uUsR0TximhHuoQnu4od0wccs6DjUPlEUuvSo4JmgKa2Ykbnu7YWL/5XzstEVNJJieSVHcFe+NXY5bBK8Y8T9N6VqKYfPeGPbab1G3YTjXM7Wfjcrc20JmIMd1q4aRcDTUb7mPqP2dEY9wXWS83K04CK/Z+s2xb1+cCSShhV5MSO6Xw1i0aXc6Q08GhY0w9jGfs18yHknXI+eNqneBG/norT4mG0jfjkggcE/nMH75pb1qZYGlBeOvVaqaqKMMUxuGOqpXRDaGgTMxxe0HCUt866tvm1MfJbhzEeYVtsjggxEJJPXJzlaKoOQNhw2ZmsKq0ZQlL0Fg2O5p6F1c2tmYEiYkyGb/u1Stnd9pxPGlijNTL/kYZdFbNBvYYLccq0eH6xiLPqCVjYQqZvz/22NiVZAXC7bCP6Ji4+ur9BXt+o5lj4sjWXuuPUP6JDq4JyTHBLES5P407c/eGPd6v2Q7ueqeSTE4iGQw64R3CTvKIuZ3TB9wqkyeThuwg6GOSY0Kq8Mneun7OiDiZyYVLwGZ7f9wVRaDD61K0hJ2bkjdk33wyOtGQhxCW2K/etnBD4Li0uu38CA1UXaLhk7sMOR99VU+L2XeacdD6KcwOi89sXXzFhttu5mLSBHdd9Or4yfMSzKpxuIVqybohFiQKff96DR+yFwQs9U1GTWbI11Zqm0M2oRdQ3ThI8wrTZHFAiIWyJjgDF1Qiew8ijaWAqoacfx1uAhbtGCVfp/KwxDtEhArXKWsucSQmybQzMCIHhDoluOrSdhQGJuaNsUSLRgAusbI0BB2O7ULHFIW2sXWbuVoIg3IG4XZ4B3dMqC0SFUfDl00c2ij2bh0p3RZRcrHCMUG+TGdvpu400LejvJapSkxOtZdIhg9IC+MdxVR3aNIVN6OqSp5mmEoMfybnMzZ2WzLTuP66fs6IHJbghjoVYQlY1stTqe3amL+I3X/nH5pqbHThVdtNQwiz9munmIKG0JS0ibaLNKLNDjSc2QBbJOhvZfdefsXei2+6O3WCm+9s1f4y3ZyHzdh4xd1qZ8cF4pjI9qO1a9+P9bVIzLO+sIl69GL1go7Vb+zJ83Vtc/R2NYXTjYM0r1BNFgeERCiqhzhXcRi9ZjqJMBh6K7YlNmWScefxL+Hb59yiMhNJIqiK62hWQ4GM77X6JlY/JteE8hkvjzlwWGKVjK62DoldKLkodPOums1sdfNlXemKG5hVuxJBuB23wR0Txkegtkfs318U7Hc4mu2Y8K6Gbn6J0pdfKp+o2/GljMqFlRy7J2L7LzE5vS/a0ot89n70N+MIZ85GFpVK37mzyXVC30csrVhEGDNxTPBq9Nf1c0YUd3e78WWgVCVg495nijFQZS6cbEXsbgmtlt7egZuYp2jIQwjNWwnsTl1VDTt0k2JQwHWcMEl1l8qsQKRx+xUVdwryXBhWbumo6sCcF3dfvmevdkDQs8ruqv10ftt1UW8BZm4c7qBasm6IBYnC0WmnWOqbzHHtmCC9KbHNOtq+2jgdOVDlFT3nEaBxgALmOSwDygurNIHnaQryaY3CJBrLJ0iBTjZUsBSLaQJ1OjWWCKx9QGKSjvBMkvROfROrH9Nj18W5B0n8/SXVIp+koVbUTyixslWKdJhOKSAbC1W1bjNZR1DaNQqAcH1t5DFHdEyonwt94OrCeSeaOiaObJk3nnd4jEN5N3I7JtS44KawClDoxuPWyPFdyOGcyQkk2feEnGQcMxiP3DYw0SfNYqqJvptqmO7gRfAOYjEDx0Rcjf66fs6I/C2TM5xIOAfZLgKKAAAgAElEQVSW3ywnUtV1qoaAXc0/aCnOnml3FuqNTjTkgYRsQLCjATPqeHxQTWizzhdoqH3URKPEgpgbgtYQrM4P37T38jvcw7p3bKiVknqmQ/+ih/7+1v5ah4O8BjomwGRdJtp1S9VinFPd8AVVlT4OcxlLej8V7ai+bU5ekTpxCFrH5hVOE/yAwDpdFHr1EPN0Qp/WSYy2eI3lb3Xds3VDrUFDGE8ELOGjHNrr0WZwG0e9hyhFYpKufoXHZ3zviNbUUag1IZ5qBurhNDMQCp3eIzSJlS0x0OEquwgiW39o7j4YNrPtzbdHCINmBcLt8I7smNAbH5R34uoHmjom3J4J9Y6Jvh/lUEMSu9krlOH8LzK8dqzXLJVocgJJNqjR1i9zg4+ZByOyG78yyRlMF9Mlz3cWxfSOCaHC/XX9nBENe0dk3demIBGsyTPf+20K6ljPNUueYlczLTZySvCd0YmGPIRQsN+7/X6ExBEg1bmWqqQ09PhWexlAvga+5V4PYrfftPWwey+vdlLo+pCHwi2o1km7BJhCP/LfWjKviNfT3/paJOZZX+huMaORF7DUbmwD2xy9XU0BduEQlmWGI9EzuHE57Vrio4SoHgExN8Q5YX5IiWPquvnZSFjV6lFIwBI5JvxL06pza1r6NONLTBLHRGBERMb1TnDVpe0o1P3C75UJPVe606IkAtWzt4DEymbOdLiJsTRsJiult0aNwK1+ESBcnxWPuQrHhPlJDvYeTOdzqPnZ6WEOYceE7LRT1mh3PwbfPKyn/XCdqBkWTC5P0m5do8E9E/Nh91ut3nvtHmNTteLJ3XJITb/CmXow2IWzfxfTTQUy1eir6+eMaNJ6LoB1t/Og952wpkojWjkBAXswNrodE7LRuRkeN2TRuvsQlgzdoYa0nw4KNJw3oRyjucre+OWf12BbfO2OCf0lG62TXCAc8eoUN/E4EkzpFtyHaiW6IRWklTCJOfaomMMS309Fk2lgm2O3q6k2duJwcleaV/gmhwOClTOhrB4lebK0+iuu/FwlswXD160clISFv2OCverrgrkVSkzYrcfuVXHf5/cxntQ2xtRnXaGZ5b3f/arEKtX/QBsD3XZK5YWZGXXGWNrffLu3fZwcQLgd5xU5Jpr+XKj/UY6FeqSj3x0T+hlCN+NTn252KM4XAyttB309UgkmlyOpRitzuKFZjqnuH/bgM+80efD0rMszHSW1hM3sKaZzTMjVsD/XbGrilKFNv88ZUZv2jqbYAthM749WpQuhIBk7MyIyFsnozE9yhuOA2ZtmbZ7Ms3NM/9vyNJh7ffazKFs6K9dpUZ3eTGm4F0b4snL5CBu19JhGAI/nfBzhjuJc/rOTpzB1E4RbcFfVknVDKEh1gdVMQYvGISxjkW6I5rUFur5Mn+vbZhPNH6ftvJRuHDLzCtfkYECQhakmlOUZZShprE9unV+uXN7qyrCIRY0t/mDK0KqIyjpMLYLExNNWYPjcMjeTrG9iNWMySzSdo4d6VrGwVuNQlVjZm1ekw1QfUe6FjZqp0K25foIwaU6jwEiOiZp7IUqiuVdMFJ1+LDT/jolG1BA590bomZBxjomBb9Ulo9JMQFUvsVbSEIAF9pUQ4IWmSljrBRN66sYcEOZbTTNZ5bM0944JN0bReiNI667yis0xnMKcYyt6rzOwGKTgIKoWsKRYwCRlkpOAVY5MX3IQbkdyJMdE9oUST956tXop5niH8CjHuszt2mlA61RzNjk4JibqcaipjXPWvRmTB3aun6DBaXQMA6YIEFgMFnCAeogEUiFUJWWSk4BVjkxfchBuR3LFjoknb93Pf0J0BP8EHBPtFCVNNWeTg2Nixsvjme/WmTH5OZt8/9hBI70ptJYApogOWAwWcIB6iARSIVQlZZKTgFWOTF9yEG5HcjzHhHvq7eoHvPvhgavbvwLT59IoBMdEO0VJU8HkUiaRBIgiIH2dAmxfJBvlA+wcF2hwGh3DgCkCBBaDBRygHiKBVAhVSZnkJGCVI9OXHITbkRzPMbHfPrKhfizUuCPG3y6xwDsm+ntuBSZXaXJAVImoXQSAbcetYypg5wBBg9PoGAZMESCwGCzgAPUQCaRCqErKJCcBqxyZvuQg3I7kCI4J5X9wvgi3ucHK+O4Jd2ngT+yYaKcoaSqYXMokkgBRBKSvU4Dti2SjfICd4wINTqNjGDBFgMBisIAD1EMkkAqhKimTnASscmT6koNwO5LDOyYeuHr/rU/GL780jgm3iUL0RbhHP3r+FMuCEARAAARAAARAAARAAARAAARAAARAYCUEhndM6GYxx4T3STx56/7xt0wURdDkJY62BBaLRdukF0o6IBqopwF2ILDl2QI75wManEbHMGCKAIHFYAEHqIdIIBVCVVImOQlY5cj0JQfhdiSDVfpCOm7Wh3RlcezYMS6PTvkl++hG/EiH3k3B4w0fhmNi2dMBk6sECUSViNpFANh23DqmAnYOEDQ4jY5hwBQBAovBAg5QD5FAKoSqpExyErDKkelLDsLtSI7nmBCf2xh/0wQcE+0UJU0Fk0uZRBIgioD0dQqwfZFslA+wc1ygwWl0DAOmCBBYDBZwgHqIBFIhVCVlkpOAVY5MX3IQbkdyxY6JxeieCTgm2ilKmgomlzKJJEAUAenrFGD7ItkoH2DnuECD0+gYBkwRILAYLOAA9RAJpEKoSsokJwGrHJm+5CDcjuSqHROLJ2+92v6O6GKUA46JdoqSppqzyR3eLDYPp03qWzJnRH2z6DU/gO0VZ93MgJ2TSmkc39lX8a7mzKjjE/oIhzf37Rw35Y00XPHGjR1OYY5dg0mWByymW8BBVE9gSbGAScokJwGrHJm+5CDcjuRIjonFZA7ZMXF4000o7WTQzxTdBT9jbEd67VLJJpeQ1O0mKc21l0uSFV4YYPfEKaqPydL7eFQWjyfFZDN9yttVI6iD7v2ogPo9OWdE9Vu5gpgyWFUR1Z1h76+geutapIydGQyzFLIrJvM2z7uIYvYoZEYfuyC9hrCK21Ge17WyE0Uahzet+rkhxn0e39ln25cWK2osOSaIj7sVFWuo4iJMZ9Cm4dQ5BIQk1vB1vEotyugG5coVRhRWakZ/ETJYqFpVjWW6xmBRcibrr85D5NSRA8NQ8O7VVVU0OEdZSMxc+nyeaYaUmAH36ZPCaxMUsVBhyhza5127EhOLKDHxrPUQwXpBVZ6AcTkJOcFuQkod9YqX8wqMgVViZcpVdeItd7UR5aHQN8dnEHQAtZJJSeYKWpNPEG7XkbNzTBzaKIq9W0cWbQ/JMUFTQDNGJTai7CcRtuO9RqkkkxNJKnx2iFJjliEpxlS3CD+YWVZi8uM7+2yP+CyXZpzb3AwyEWO61cJSrobvpW5dP2dEnsEEQxJYsfcnWPcZV0nCzuzPB0WjyxmyM/kgeRehHsaTccRwN1oiXGxu6RINVYgZXNwQoz/zmXt/BdMLRYIdF8K9R4Yp3A86qlZGN4SCMjFZN40QlLDUtyNvUXrxZfRIBDhCUzoV0Y2DOK+w9REHhFgoqYckM+lqzkDcnFLKqCYsCUvQWKYBNbOcfTSJieoXP4rq4dWdiuag4idT1o7CzFSzQ+9376ocq6KIdNgWZfQ7unuGQrmZUiuZbrJg90ZNKgcQbtcdM3NMHNnaW/TvmODoBAtyU0weDeGlZHIciyOpxi13F9C+AzpxsV1MN6d3cv1ZmdyntukSgcvPXxC71F92Cewag06bBuaMqGlbR41fAlboxVGrts6FSdi5KUnsSSYa8hBCNchEcyfXKfrKTuC4tJd4M1zsik+Jhk/iMnSfdEVPi5nbIQ7aqptGqGnzZuimkL/JouxnGpBg5vvRNLKFasm6IRYkCsemK2CpbzLB7YtgsSZIMnZ5QsFuHAIQQat0J8cDQiyUNSExbJ9xlitdoIBKJOfvs8uHBCyhPy1Qlnw+63RFYpJgSASKAHVKcNWduE/Nyp24z2phgJiXlLlVBfGHOpFY2bKoir7s2C70FVGY5CEZC5cJpfly5xwC4Xa9N4Zj4uSZ1xb6OHvOfLb9f2Rr796trY3ed0ws/ZG67tbWZHyj24VKTE5lSCT5+MMGf18oxdRuCzdPd+6LquRp/6QSUxaTh5nSZe9A0SKWwNe2SWjOiJq0c/S4JWA7d9rojZlPgSJ2P63OWJWdeYVXbTcNIXRTJTOSsHmfnUUKGiKIqntFpFHhdnCjmlmOFMW+zc19+3YOp54UVVd1bB62fLVg83CHVUx1i1YYQ4CZ7UdbTd9p9bVIzLO+cHRAApb6jeVL3jCVaYcHOHq7mhbYjYMzJmNQvmxxQEiEonqIcxWXcw6sl/uQHQnYwOByqfEpYAmmWLYtNXJanygSk5RDKvF+iciPZfsqtKDGQg6YZryyavGow4YlVrbEQEOVLLGLrNDVmZqZMRbdev0apZCtS78OnyDcrhfHcEz8e+9/4q/86pOLrofaLbFxaHFoOMeEMr1obSqMX+1Ar1+qEpMzA5G510YE4/FOYK5QKbFeUmST64R65h6jFYsIYyYDoVCNqOS4lDrnc0ZUp30ri1MCNu79ldVxDQsWsTtDVLN+7wVwUppwR+ZkumkIoXaJumFcFeAdIyaUaEhUi7odJ9JgO1nlfMhzYSrjJmeqDvZQyA5v7tunt31QdHeVRZILmKdUgKmbbvWH9SPNcluolqwbYkGicHS2KZZIWUvsyDm/rMaU2ObozWpcYEcOVB7XIxoHKMC/NffCKk3geZqCfFpzrmKogzSWT5ACnaSK1gukWOxXQrbP+YhcL8f5x5KYREbjl9mquUnvRLFNb3YUeq66OKsJVarlUw0TkljZkiIdplMKyMZC9eTNJCGb2DPwSln96MQir0EQhNt14hiOiWJ7d9H5IH8EBdplKb1jQqHTdpRYRzQaqYg4LIGcycUkQycAH9fimAFaFzGf3ERXY3vYby5lkJ29YduYQaZyNfro+jkjiulN6jwHlt8sJ1Xh9aiMgF2ZCZmfskU/+dZt9uYZ2JyajatkAwmpRvT9IRsUWFBXsa2lCzS0R8H9lkZJn+shhxYPJsDqrJ97di4O80mPQjtPRknuc7wkwAz7KTxTTWypWoyzzTPMukw4OlkZC7MxX9tUWN82R29X0wI7cQgKc53tPoNbRpUwiOyzZcm0MD53Mb3GWvXVlr9vZ8f/AI+LWu9TwEIjnslBGJLrZT3bWBKTdIgXhlHfO0PclTRPPe6nA5BlnVOb4bpCYiVVhtXMB33I3c1dReNmOrn+dMmqRqcg0WxPQLhd183EMcG8ESy4aHGIjonc6O1sqB3bNU8lmpxAMoDo7xBCzACYS+Y+9UWfnMUNYmSmDiY6xfR3nlw1KCorqHFwzogaN3bMBCJYU4FeOm7MtsyorBR7ZJASfCdzn7q9Lt0QwnDOqUs47PcjkDvAzQ+DKjTpjJSG9m+zBWJ5buRr0MlcdVSawzvaZ6NFPhZ5KHjU8iLmc1WAKfSj/flU1yzXde5Ty0tVS8yzvtAVPNqngKV2Yx0IW9kgXYlstLY1KagLh7Acg0GxiQ/1WFUsU95TUT2CTGO08bmPLF7xsxEfsV5IwBI5JuI1Y7185xxLYhKZQszINdf1jvvUcpe2o9A4UqObQ7VquaoN8ymxsiWx5jYxFrGZQeVtxg5rWlwQe+4nINyuB1fsmKi3mcK88jK8Z7T9ZQ7BMRGZiAfJbNMLEbIEBJOTSTIpEWUyBvT4cTfzVP4CO/9mUXlyN8Sry+FMnWKpnP28Xm+KsTHdVIDlzapR6twI45WfzRlRectWfFUA62oU9L4T4rMXAgL2wPycl082OmZsvpOGErLBIxwd4kmpr0pTRAIN/is/Vdm5MYh/ecr3m9gdEwpQesRtqips8tclmEy3KNiHaiW6QbmbnZPmuigcm2MOi737eeVVtY2FrAV+vSADHLtdTcvrxGEpzit8FTxFL+MLesbRB8vyDDKsAh5EZhWoE5Sw8Jr7bq+T23rEkZgw67DDrRtA5d5h8X33dBOy1IyzkibDEbs+cFBiZYv07Q7rIMq9MNNMYWLPmr7GagrCofrUPRvJMVFs7+b+Fg2P/ndMqOl0cNgbvGxjdcmufTzB5MpIGsLOnSDHVMTt4W4cCqMXu+Rc5uZjBNyPklrkU/uYblEgV8Pk7suinJsG5oyoaVtHjS+AdeVHve/E+OyBgIydGRHZjGR03Ggp4jBCNTm3ByvJEgg0RFU0jVKLVUoj/AKsLBNVv6RYNknW02c+BlJmbugiwXoEUpi6XUI/dlUtWTeEgsx02ahR0lcjUZexeASsXqLQN8urm4/oZSM1p3Ux3TiwFks2FQwIroqh0HN0xMvyDNOy+YsH7pNLNXKVqPoUsfi6Kt119a3Kam2uS0w8bYUkJM6uMVZe2pMw7BXWMf4CK2mk3pBY2aIjHaYKiXIv9K3h919PM4DPIo/fdmrRoAEQbod3JMfEInPU2zERJO7fMdGO3AWfqsTkJs9mpNn9nBFNug8BdiXdA+wce0rDvRaCx0rCejYWzMP8/IyL48woFo+U5D5XQQpzri3ptd7AYnCCg6hWwJJiAZOUSU4CVjkyfclBuB3JFTsmFqMfwqMc7chd8KnmbHJwTMxbfeesezMmD+y880CD0+gYBkwRILAYLOAA9RAJpEKoSsokJwGrHJm+5CDcjuRqHBMX7TyxWNEBx0Q7RUlTzdnk4JhI+3NOkjnr3pw4R3UFdg4ENDiNjmHAFAECi8ECDlAPkUAqhKqkTHISsMqR6UsOwu1IjuSY+Pd/6ejCHfSyCScY9ROOiWVPB0yuEiQQVSJqFwFg23HrmArYOUDQ4DQ6hgFTBAgsBgs4QD1EAqkQqpIyyUnAKkemLzkItyM5hmNisVh86ZWzC30Yr8RisaCAkY/2H46JZU8HTK4SJBBVImoXAWDbceuYCtg5QNDgNDqGAVMECCwGCzhAPUQCqRCqkjLJScAqR6YvOQi3IzmSY2IxmQOOiXaKkqaCyaVMIgkQRUD6OgXYvkg2ygfYOS7Q4DQ6hgFTBAgsBgs4QD1EAqkQqpIyyUnAKkemLzkItyM5XceE/bWZvj8WOEAABEAABEAABEAABEAABEAABEAABCZDYGzHhHmC49lTr63wUY7jJ8/jrzuBxWLRPZP1zgGIBupfgB0IbHm2wM75gAan0TEMmCJAYDFYwAHqIRJIhVCVlElOAlY5Mn3JQbgdybEdE6+cPWdcEsX27stnz43voCmKoh0ppIoIwOQiIOkpEKVMepEAbC8Ym2YC7JwYaHAaHcOAKQIEFoMFHKAeIoFUCFVJmeQkYJUj05cchNuRHNsxsVgsjG9iJV4J9dJNOCZ62jACk6s0OSCqRNQuAsC249YxFbBzgKDBaXQMA6YIEFgMFnCAeogEUiFUJWWSk4BVjkxfchBuR3IFjonxd0nwEuGYaKcoaSqYXMokkgBRBKSvU4Dti2SjfICd4wINTqNjGDBFgMBisIAD1EMkkAqhKimTnASscmT6koNwO5JwTOB9Ey0JzNnk7r682Li9p50jJYY3Z0QttaKERo+XALZHmPWzAnbOKqXx8E17K17WfMXdPAcK+4Q+wt2X79l62IxRd2wUXj5pw6QWNQ2kMJvmsJbxgcV0KziI6g0sKRYwSZnkJGCVI9OXHITbkYRjQs/z7thwE8q9N3zGzfw+s3Wxk15+hxMOv5pt15Hjp5JNTiR58u7LLUmGV4rpJ+hFwebiUnKfZ+RiUJEvvmmXAaHkFJM5JqRqHO+p6+eMaNIKL4NVtpn2/qQbwrR0BvWUscvGkhqd7R09ErBxwBtyj8Lzx71dk9Ubwl5DgtFGV6vROC/SuP0KO/jcfkWhc3NDzWe2LraOht0b9rj7ivsMxytXTxufSLrYRVGQz2Jd7kciTGUdQj8SEN6zJKzUIjHPJsIRmWew1G5sA9uc9PjTkUNg6bGPT8FMDDARJnqYzzNJ64c4prG+a7jGNusFEcvtV6zzQFF5x5SYREMu6wU3Z9DIuLy2ifnO5f0oJfcqZGMGKqRr0OgGVImiMoLEyt19BKPIza9ChU+aefzk+aClZIB9mEBlG1cbAYTb8Z+NY+LIFvsyauMQfzqjUVh6lCP8bsp+l66MzQ4TytL4mNXs5tGuY6afSjI5kaS6K9gbvycpxjxP03rWfDH57g17bI+o27Ad6cztZ+NytzbQmYgx3WrhpFiN3rp+zogmreQSWLH3J90KpuTzqKeEXTQW0ehyhpwODh1j6kVmZuluZkjJOuS89kU2G+QlGqofjUsicEyoGZic+cM37U0rEywt6DY04np4fM2UYd6xkbhgOqpWRjeEgjIxx+0FCUt966hvm1Mff7pxEOcVtsnigBALJfXIzVWKouYMhE0vM4NVpRlKWILGstnR1Lu4srE1I0hMlMn4Nb9eObvTjuNJE2OkXvbTYNYp+XtEzYa3iJZjlehwfWMRZ9SBTrp6hqMTwRl3gHWVYR3RawVAuB3h2TgmDm0Ue7eONPJBiJElxwRXyrsvL4w7k9auxk3IvaE8/oUblkyO03AkgwE3vEPYIcDFdHP6QJUrkyeTBmnGoCvmY/LOpTpTNfhVElK0BoE5I2rQzKC/eh3WczmXgM32/igVy1V4PeQS9ipjIaMTDXkI4cndG/Zkhmu9beGGwHFp9dz5ERqovUTDJ3cZcj76qp4Ws+8046D1U5gdFp/ZuviKDbfdzMVcxzmcBDPfj8aWW6iWrBtiQaLQ9+84Fi1gqW8y6rtccodJNzICOPmxsRsH6ysUukwcEGKhrAnOwAWVyN6DCDgFFHk5f6G2STcJWPQkinydysNCX1AnyesUMbs4EpNk2hkYketB6pTgqkvbURjAF4yxRJ2G6wKJlaUh6HBsFzqmKLSN9c0UWke0VeT2JjAcnF5yBuF2GOfkmOiwT8L7KCocE8yX6b/LugAe8W2hPSUmp3IjkiE9YbyjmGp4cpNvmlFVJU8zTCWmdUzOZ2zstuQK7avr54zIYQluqFMRloBlvTyV2rYwrmkmEbGXG4vvDtGQhxC6qZIZSmiOrmc/6nszXyXS7WCSVFdtRBrRZgcazmyALRL0t7J7L79i78U33Z16Usx3tmqnnm7Ow2ZsvOJutbPjAnFMZPvRdpDvx/paJOZZX0gKM1ZA0LH6jdU7qK3+h6mSG2JdnV/VuNSNgzSvUD1o15xekUShqB7iXMVpRZihZ+vlwYDjlr4ueX3IApbAMdE+5/p1mFpMiUnKIZWw+0JoLLbXOgp55/oZr9ONQB+ckCcZJiyxsqV7XbVFW2KhXBS6+vtmqmjucK7SoMlCd0xNr9rVB4TbcZuLY4I/ydHJQVHmmFA+Ub/jy00NlUGx2a2zumFGina9uJJUJSZn3tFgNstFPvtwXDM7qD1zaohKpeff2eS6swrWX5RWLCKMmTgmhun6OSOatJ6XgI17/4K3U7KL7gERuzxOJuYpGvIQQvNWArtTV1XD7p4gxaCAA9JyViTSuP2KzGYNp4fkuTD3FOfWYVM35by4+/I9e7UDQu13lQ43vXPZurZM2mxLKinAVPNad2tg/UgvAHKbsfUDzMzjY/pXVC1ZN8SCROHotFMsYrtEYfRot5/DJLZZ0i8TudSRA7VCgXJ+PRoHKGCewzKgvLBKE3iepiCf1ihMClxLrALz/BsqWIrFNMGPGK6xRGDtAxKTdIRnkqR3RGvqKPTYedfb7maVaagAPttWCSVW9g4S6TCdUkA2FqqG0EyVszcWHqGDCXQkMHRyEG5HeC6OCb/lQbkoOjzUkXNMKINxU1iFUpkNTTHZ01BkeBd8IGdyMUnR06zpxTEDpG4bWD650Xg10Q/vvnzo5FbBYgaOibga/XX9nBFNeoWTA8tvlrzrEe6FgIC9yli80YmGPJCQDQh2NGDfz8Tjg2pCm3W+QEN9XUl3jRILYm4IWkOwOj98097L73AP696xoVZK6pkO/Yse+vtb+2sdwYBZUtwMLgkwWZeJdt1StRjnVDd8QVWl92JQlZnIWBIvjHK4pML6tjl5RerEIWgdm1c4TfADAut0UejVQ8zTCX1aJzEd7TWWv9V1z9YNtQYNwYoFLMGOCbZxNaxJpeLNN4LEJF35C88O/P/t3T1647iTgHGfaoI+yYYT+RybzNNpH2BvMBs7mjP0P++ON9cNvA8JAiiwqgSqAMmi5lUwoksAP34oQFS1ramjY86mweDqv7/VTIMSfQMaHyPLakuzJod786JpvH3Vpfc+mCfgpCkwjnDXPSAc4z1fYeJyGfq6CbMwsSxJ4n19K+yJyG7ixaxfrJc55bTkcs+U7wDKL0+mN/ideeuT1y+nu2icW+a3Xn+wSstamNAnvLx5TBr6MxMZt0HC/ItfNWHT6fmj/8Xn/Dx64TPR7AcmS5505kS+R7D96L7mw/+KXyXNlYC8KIUTRmus69vhGkepNchfuV8Xsf/57+//5O/lXYsUa+qWCkU+8/A4PmFHA9MYR/n/WhLf/XQ8i8x9Hg/mt5iHARoshy/2hrn58Ou6FXDEoT1WWo7MyuCf/1V/4VysEmZ6NGJ5ictBf0nZt1zPrd6NtKfaf8MyWHaFieV7RryPiP3933o+z9DeMlGFiWYSFYds1bya+w4G13GRN5bFys+WcmL32rCstmOJs7plsviXma83I+fJssbjUyDv9l5Eg/tHOAZIYcL5PvbevzbEuF+plzHl7NJvXtlTiTTdVTst/8n/r9Zavc5/CLrQlfeG9p5eFD6W5Uksqevg5irDcqO23dPnddA8jXlDf2aiJ13o0wwyYPP7XDP6OfhK8+4Lr8VgNyeLPT2tdcCc3TOC2y+uN6enb7nEh9vbU8XQyNWEI2Mkvg+s/r1G+fOE9a85vv+z/etT/phUnl+uNmFhLgmzH8cZqbXf55pvx4KPXhU9lvpXAFsmWJOrSf78W5824KOv68gEkW2GHP7vP9Z9Rb1k85eeA7YAABvZSURBVC1DBK08vLpP0de7A+kcXV77lW2Lpb3/WX5J/nCp9PY18Mq5fdVLlomYHds/1OdijT0dRPtyzzn4rrRMRnMgzA/qNT3uymhZbYduclgkhhmvQfsyIxPwrhf+sJ0jHKM+S2Hi58/8f+T4+8+3yX/Ksf6BU7nlq3/XKuLifvFBS0ZsOB/Zy5hyQix5bm7LapUeeWm2Wy7vB9tD3nnr7s39et5nXj3rKrlGlnrE9igtc2HCPo30C5Bbn5GhPzPRU+e5AeuM/iNnxMsfy2YXk6hMFmvSpRJwmlZlJt4nWP/f8vlLCnJ6GIVL+36xn/9aI39hRL+v/kWt9Gt6BbAUJvZJ1f5G8f5VcZnnekljrudvlGxGU8vODeNAyxDkdw4xLv3BnShvs1hviOWrN5oPosfn5nNnzpiDc1+RL3l3w5CGrw3qTLi2z7bv+nf1+zuQ2n2riOWTuSl5TJZlbakPsdKGDnHT+TxDY8ukai8w8t7Su5M8PsUOthQzMQ3OtqQs3b9sjCyrbX3b5XAZWTNeg/ZlCv+KX4MjU6Cc2HNuIBwbl9MUJr6XT5cDXzBxuVzMP+WI2f3Le12Zck8vkwsTd36rPjPRQ++/b00YYG8Vm9IedsmoNQ59wcR669Z80K03c/IONX/HRF6jyueNpm9+VZ7YGbc15hmvYvo5w5JIcTBTCxbNgok28SJYeTKz4gjHJM9SmKhffjm4RWEilii615mnHIWJp6476GTbRc6ceyeWh13mIRpSY3AbTBMQlsSCA+lhCuggqaJNvAhWnsysOMIxSQoTJ/6cEBvyWb3OPOUoTJw77c+ceyeWh10unmhIjcFtME1AWBILDqSHKaCDpIo28SJYeTKz4gjHJClMnPhzQmzIZ/ViynUlIeoSxRoAG3Mb7AW7BERDagxug2kCwpJYcCA9TAEdJFW0iRfBypOZFUc4JklhgsJEUIAp151yEHWJYg2AjbkN9oJdAqIhNQa3wTQBYUksOJAepoAOkiraxItg5cnMiiMck6QwEfxYHuN+pV5Mue5oQtQlijUANuY22At2CYiG1BjcBtMEhCWx4EB6mAI6SKpoEy+ClSczK45wTPJ5CxP1f3g0dWvwuzPpjgACCCCAAAIIIIAAAggggAACEwWetzAx8SLlrt7emkv+5BEVuFwu0a7/ln4Q3Wmkgb0T7PXdwi590JAag9tgmoCwJBYcSA9TQAdJFW3iRbDyZGbFEY5JNp/SL9bjr/VhvXL59euXjO9+lC89zzaFic9JD6ZcFxKiLlGsAbAxt8FesEtANKTG4DaYJiAsiQUH0sMU0EFSRZt4Eaw8mVlxhGOSFCZibvT6ZMp1kwCiLlGsAbAxt8FesEtANKTG4DaYJiAsiQUH0sMU0EFSRZt4Eaw8mVlxhGOSFCZibvSiMNHPAValvlGoBbAhttFOsEtBNKTG4DaYJiAsiQUH0sMU0EFSRZt4Eaw8mVlxhGOSFCZibvQ6dWHi4/3t/eP+Y8iqdCdjYO8Ee323sEsfrfH7x7fONzU7q07tWBt8vH/78Tsd70HLlby4R29rzEefwVMeD5Y0LDiY6QmLZsFEm3gRrDyZWXGEY5IUJla3j/d8Q1luBj8/692iCMaYX7GXPeVMyc8SFZIl9laDlfztTZQOStPa8rPus97Ll7GU7ayW4k6/7FucxqyhPzPRU6esDbuc8jKc7eg/9YWc6+RsdjFpxVQs80rE6pyVQ1RaTgyKSS/WkVW7Zog48W35l+faHRpT4+N9S7+8xOTn3z++bdenD2tmbClMFJ/8HvX2giluYi5DUK++DE4JlYhs180ic5+3BLuZMa+Bw1IEehcrck1gle4iNu+c77GnQQfBIO8r0pkuGtJxjapgMcvrib9P1bcmsQCv/dXBDwuaLPVMX3Gh6NpYJtV6XUPFKCy7K2AyXoJydMaCpbdMN3Fq8vDdy5zSwLJKO17OVV55PpwZ3wXLdcoLKsHdXnd983Fe5Rnh2EieqjDx95/51uzPvy/Bh/Xll+UWMK1RaTotE2abWOVmM2b8or2sKWdKLkvvthpVVLPl8haxW7dSfUh1//3jWx2cPE5pjX9/b3ZitsyfFj7N06hnaZ7Q8fE8M9Hxq/yClhasOfpfcG4vfEiLvZ0s21Q0J525DtwjuC7jah1J45KyxHhxeUHeSPWH0dJYeqXFJS8x67O/81qvEAdcTMXjttMS+znRpo1pvB8MppaTG8aBnJaPNbVYjk+Z43PzsVd1+9HGHK69jZsLwj5opYcVS/0O3oHk5cba0UEhi6W5WJEBB3d5+maWyTIudRVdl9f84+B6suzZujvVwQO3muIcHzMMntXb2y6Ht9PZz4s13AZv8/QO9JjLf8BREI4hn6cw8fefb398/3kZfViFCUmX3yXy8/qaefcoe/0bt60pJx2yYPOm0PyQW+eW+Z4+x9fnpkfzw9as9vYCeX+1Zf7UkF9Zn/PL+XkNDg39mYkammf74QpsM3rPdt4nPx+LXU4ly77Emrmbf8jPK0z+IT8Hg8vvOxmVh2Vv6ys/msLlNiTyMrZQ78nSqH3yDvNzeWVXdRAFiLS5nXq6iOU2770tU9j/klV2f9INC9Mfx3SRgdSyc8M8kBl8tK7Bcnx2bCWyHZa4hAIoYs+5OebQQDQXuA7yfkHYB+1MUBO77th1LS+UjaWTvf+6O3/LYGnraU2y+Pt5pVcsE8WgAotAGZTm1fxDfl6t8g/5uR9siMuRZBKVYNP0rj9YVtsBjbPZz4u1pRlM+yi7MJXyhZVWOfBSzwjHhvMshYmf3/+YUZa4XDqFiVJhbqZLM7Fi0K/X68qUWy5WSubqtFz8K0hpubxDl/v03Ecu3eK9o3RvBmqN6khqLOLtTsvLqWIt2qXf18inUo55dOPMREev8UvaXYFtRu9LTu51D2qy19tqZ1bVf1ASE2kbprbLnGC+VWo+5y+Dsi3jRoYYof4omhqdsoMQWBe7b+/v3779+NCVlLwUvn9svmvg/WPgU0z/ir6whYHpjuN2mnXQjmeRuc/jwYcDGSzHL1Z+5G17peuogA+/rlsPOOaQJ9OyIogZaC8IS+P3j/opNc24H7k6mEue3j6XK/Nga7xu1XXpVpPPT/t7vsS+t2sJ7Pm8XYxUyQMtLsqQqW7tZNnig0Fx7Hpv3JuhstM9ti2r7ThVYwuoebHEzaDag0m3tXInS3793M8Ix8bvJIWJtS7xPf8lx0iJ4lphYpll+Y1Lbq83m/INLWb9Yr2uTLl1vdokt6UrX/x+vZPOuc224K23AG73tePuRiPtwDxE27JdKbfjzR/6MxOJwXi+zSuw+9F/vpM/7xmZ7HkiLnf9+a493bE0nwPMiXyP4HrbJ+dyLYykLZUhu7M4Oj6mhviFXXs/pXKRTmYrO6QVM5VSlneaj/dv39Zf+yjN02vlv6/2dmRgyrfdZYhyci3by6MQ7MYvja8ZtHPDPJAZtIf0jlHNYl6XGcxva1vOZD5jbt7xAibtetChnMUClSHKOlA2ZE2hBnuZIPeZDlT7pp+XFk3GyhukJifLiR7b0CzbPwltYy5X5GN7PH8ry2Q3P+on6uVy1ejsWqfRHAxW1/VwzdqVBysnZm177y3LajvmLofLj2XDniyHPculyR2W4MtsIBwbypMUJtZvl9i+WOLn9z8G/qjDK0ysy0W7MqxvSMui8e3Hj/oN6THnF+zlTbm9ZFsEkMvQvmWDlBv63VPzZZTUuLWBbb+iZbNT4zQmDf2ZiZrBeLYfPFj5Zvls5/wC52OwL5OnzLZl2pRbrnS9ddI1cy7/O8mdguWMyr9e5uXEyJDlEnZnfWisDI21opD/XxpXdrIuOfl+dHsW57z+nW4ucaTn8qe7uZJxZe9nfMnAFENmjNo6slvq3ZRFwnk7gnkgM/hwWZtFZGu9BB08Pjcffl23HnDIoTlYHtf83KRWL9g0rrsV3dbg/ufcsi6GaUdp5g/cXhosZcVLBzWW5Hw2L/psmegl3lhG6+jctJ7oeWd2X7XXdV8sQL0Zeu8hsqy2YzY5LH6om3Urv5u3p9vxzI3FbnLohZ4Rjg3meQoT4tckRr5uwixM9FbvdqWJSb9cL3PKGZLNwlPfIYyWDVHulp/XF2t30bZp4dw6pOalZR3QA6ch3nnEUY9snpnoyPV9WRsTNp1NGeMvO7nXPbBm301ICz/H8vPKk/vdI9jec65H+BB/I5brAfn+sDmFW8ZOa6z/+nZ4uSi1hrVbPp3lDD5+/Pidv5e3tioVCtn0lhN+5rYGpjGO2/8+NV9IHrr8vMavppa5z+PBfOCHPRsshy82Q2wn2/S7EnvYtd1yoBGH9jiJYbHZP5Y/q9rHlsqXmR7NTve0+59rY/OVejdSGx7bMlh2hQn7M+OxvZ+zlWWymwp7o3yheXTy8xrPfQeDqZDavjnkXW/Hb46Qz+muz5aVPplbJktzuvmC8vP64u6iXzxBEW4y4vAPJylMtF8xMbkwsZ8pe7xmWu1f/Pf+bEw5W1JEC6WICcHfv/Od51Iv2O6/RVPZPS/xy8vtnXpptey53tevv7K3tcy3AmLf4jTqZrOrGj66dWaio9f4Je0M2Hweg0OWd8OzIWCwN9MvV/nsSScmWx2kewXF4tGuDvub0noqxgVfDRkauZpwtd/2Yl6D5D+eyt/c2H5jYgHSj/01HTngU7exMEVulc0ZqaVyo+w9/V53et0MPtrQY9ne/WryLme7D4orqB+LbMBHX9etxxty+DTvK+opVMUak5+XhGPdvLbPZoc98KaxOIEjmxaLPPM67Ef29hptLBMxO7blNi+g9uiI9nV4xoKid3VegvlMlnHLU7i2uO+WZbUdsV53ewpmvAZv8OwcqD3sWX9CODZyJylMXMTfb4jNy+0P4zcmlgWheaxv8MuakR5l5YgRv2ovY8rZkuluL1nmcoLdsprX5Vr80Zpct0XTvM8MXVfJNWK1zB8KeqcxOPRnJsqaT/lswObz3I1+DvM8QcBmF5OoTEVr0lnrgDO7y9/9yil/Q3C9yWtXnHr5TYYsJ1rOurY5sqU12n9bvbaPxUwdVtzUrbfP5uqTl65rez/haxpzvYiaW0VrNLXs3DAOlD7VeVn0GGObpRIUFWdy1cuq6VZ719hjriZ+lDEHccXWnGoWhHyObbA6ZvFr+2z7inWrgtfu1hnlk+g9myz1XJfczefb29XLvG6ZVO2FpBUXrwmrGp0UbEelDoyIiyM9aDQsq+3QuxwuJ2TGZbDKydyr0f1Vyr7lKC+zgXBsKM9SmLhcLuv3TKy3CduXTVwiD6MwEZP71/e6MuWe3uZBd/dnJnrqMQT2S4YHdsmuNfLXQshWanu9E23uzuq9qQzvd1ZayUZq72cNaMyzXsnU84YlceJgphUsmgUTbeJFsPJkZsURjkmeqDBxmfKgMBFLFN3rzFOOwoQezzNFzpx7Z3LenSvsEgQNqTG4DaYJCEtiwYH0MAV0kFTRJl4EK09mVhzhmCSFiZgbvez/h/ZJXChMnGSgnNNkuXdg7huGXfqiITUGt8E0AWFJLDiQHqaADpIq2sSLYOXJzIojHJOkMBFzo9epCxMPGj5WpTtBA3sn2Ou7hV36oCE1BrfBNAFhSSw4kB6mgA6SKtrEi2DlycyKIxyTpDARc6MXhYl+DrAq9Y1CLYANsY12gl0KoiE1BrfBNAFhSSw4kB6mgA6SKtrEi2DlycyKIxyTpDARc6MXhYl+DrAq9Y1CLYANsY12gl0KoiE1BrfBNAFhSSw4kB6mgA6SKtrEi2DlycyKIxyTfN7CRPrfdE3/74UHAggggAACCCCAAAIIIIAAAgg8jcDzFibuRMT/leNz0oNaYBcSoi5RrAGwMbfBXrBLQDSkxuA2mCYgLIkFB9LDFNBBUkWbeBGsPJlZcYRjkhQmYm704k85+jnAqtQ3CrUANsQ22gl2KYiG1BjcBtMEhCWx4EB6mAI6SKpoEy+ClSczK45wTJLCRMyNXhQm+jnAqtQ3CrUANsQ22gl2KYiG1BjcBtMEhCWx4EB6mAI6SKpoEy+ClSczK45wTJLCRMyNXhQm+jnAqtQ3CrUANsQ22gl2KYiG1BjcBtMEhCWx4EB6mAI6SKpoEy+ClSczK45wTJLCRMyNXhQm+jnAqtQ3CrUANsQ22gl2KYiG1BjcBtMEhCWx4EB6mAI6SKpoEy+ClSczK45wTJLCRMyNXhQm+jnAqtQ3CrUANsQ22gl2KYiG1BjcBtMEhCWx4EB6mAI6SKpoEy+ClSczK45wTJLCRMyNXhQm+jnAqtQ3CrUANsQ22gl2KYiG1BjcBtMEhCWx4EB6mAI6SKpoEy+ClSczK45wTJLCRMyNXhQm+jnAqtQ3CrUANsQ22gl2KYiG1BjcBtMEhCWx4EB6mAI6SKpoEy+ClSczK45wTJLCRMyNXhQm+jnAqtQ3CrUANsQ22gl2KYiG1BjcBtMEhCWx4EB6mAI6SKpoEy+ClSczK45wTJLCRMyNXhQm+jnAqtQ3CrUANsQ22gl2KYiG1BjcBtMEhCWx4EB6mAI6SKpoEy+ClSczK45wTJLCRMyNXhQm+jnAqtQ3CrUANsQ22gl2KYiG1BjcBtMEhCWx4EB6mAI6SKpoEy+ClSczK45wTJLCRMyNXhQm+jnAqtQ3CrUANsQ22gl2KYiG1BjcBtMEhCWx4EB6mAI6SKpoEy+ClSczK45wTJLCRMyNXhQm+jnAqtQ3CrUANsQ22gl2KYiG1BjcBtMEhCWx4EB6mAI6SKpoEy+ClSczK45wTJLCRMyNXhQm+jnAqtQ3CrUANsQ22gl2KYiG1BjcBtMEhCWx4EB6mAI6SKpoEy+ClSczK45wTJLCRMyNXhQm+jnAqtQ3CrUANsQ22gl2KYiG1BjcBtMEhCWx4EB6mAI6SKpoEy+ClSczK45wTJLCRMyNXhQm+jnAqtQ3CrUANsQ22gl2KYiG1BjcBtMEhCWx4EB6mAI6SKpoEy+ClSczK45wTJLCRMyNXhQm+jnAqtQ3CrUANsQ22gl2KYiG1BjcBtMEhCWx4EB6mAI6SKpoEy+ClSczK45wTJLCRMyNXhQm+jnAqtQ3CrUANsQ22gl2KYiG1BjcBtMEhCWx4EB6mAI6SKpoEy+ClSczK45wTJLCRMyNXhQm+jnAqtQ3CrUANsQ22gl2KYiG1BjcBtMEhCWx4EB6mAI6SKpoEy+ClSczK45wTJLCRMyNXhQm+jnAqtQ3CrUANsQ22gl2KYiG1BjcBtMEhCWx4EB6mAI6SKpoEy+ClSczK45wTPJ5CxNv93lceCCAAAIIIIAAAggggAACCCCAwNMIPG9h4k5Eb2/NJX/yiApQC+zKQdQlijUANuY22At2CYiG1BjcBtMEhCWx4EB6mAI6SKpoEy+ClSczK45wTLL5lH6xHn+tD+uVy69fv2R896N86Xm2KUx8Tnow5bqQEHWJYg2AjbkN9oJdAqIhNQa3wTQBYUksOJAepoAOkiraxItg5cnMiiMck6QwEXOjF98x0c8BVqW+UagFsCG20U6wS0E0pMbgNpgmICyJBQfSwxTQQVJFm3gRrDyZWXGEY5IUJmJu9KIw0c8BVqW+UagFsCG20U6wS0E0pMbgNpgmICyJBQfSwxTQQVJFm3gRrDyZWXGEY5IUJmJu9KIw0c8BVqW+UagFsCG20U6wS0E0pMbgNpgmICyJBQfSwxTQQVJFm3gRrDyZWXGEY5IUJmJu9KIw0c8BVqW+UagFsCG20U6wS0E0pMbgNpgmICyJBQfSwxTQQVJFm3gRrDyZWXGEY5IUJmJu9KIw0c8BVqW+UagFsCG20U6wS0E0pMbgNpgmICyJBQfSwxTQQVJFm3gRrDyZWXGEY5IUJmJu9KIw0c8BVqW+UagFsCG20U6wS0E0pMbgNpgmICyJBQfSwxTQQVJFm3gRrDyZWXGEY5IUJmJu9KIw0c8BVqW+UagFsCG20U6wS0E0pMbgNpgmICyJBQfSwxTQQVJFm3gRrDyZWXGEY5IUJmJu9KIw0c8BVqW+UagFsCG20U6wS0E0pMbgNpgmICyJBQfSwxTQQVJFm3gRrDyZWXGEY5IUJmJu9KIw0c8BVqW+UagFsCG20U6wS0E0pMbgNpgmICyJBQfSwxTQQVJFm3gRrDyZWXGEY5IUJmJu9KIw0c8BVqW+UagFsCG20U6wS0E0pMbgNpgmICyJBQfSwxTQQVJFm3gRrDyZWXGEY5IUJmJu9KIw0c8BVqW+UagFsCG20U6wS0E0pMbgNpgmICyJBQfSwxTQQVJFm3gRrDyZWXGEY5IUJmJu9KIw0c8BVqW+UagFsCG20U6wS0E0pMbgNpgmICyJBQfSwxTQQVJFm3gRrDyZWXGEY5IUJmJu9KIw0c8BVqW+UagFsCG20U6wS0E0pMbgNpgmICyJBQfSwxTQQVJFm3gRrDyZWXGEY5IUJmJu9KIw0c8BVqW+UagFsCG20U6wS0E0pMbgNpgmICyJBQfSwxTQQVJFm3gRrDyZWXGEY5IUJmJu9KIw0c8BVqW+UagFsCG20U6wS0E0pMbgNpgmICyJBQfSwxTQQVJFm3gRrDyZWXGEY5IUJmJu9KIw0c8BVqW+UagFsCG20U6wS0E0pMbgNpgmICyJBQfSwxTQQVJFm3gRrDyZWXGEY5IUJmJu9KIw0c8BVqW+UagFsCG20U6wS0E0pMbgNpgmICyJBQfSwxTQQVJFm3gRrDyZWXGEY5IUJmJu9KIw0c8BVqW+UagFsCG20U6wS0E0pMbgNpgmICyJBQfSwxTQQVJFm3gRrDyZWXGEY5LPW5h4u8/jwgMBBBBAAAEEEEAAAQQQQAABBJ5G4HkLE3cientrLvmTR1SAWmBXDqIuUawBsDG3wV6wS0A0pMbgNpgmICyJBQfSwxTQQVJFm3gRrDyZWXGEY5LNp/SL9fhrfVivXH79+iXjux/lS8+zTWHic9KDKdeFhKhLFGsAbMxtsBfsEhANqTG4DaYJCEtiwYH0MAV0kFTRJl4EK09mVhzhmCSFiZgbvfiOiX4OsCr1jUItgA2xjXaCXQqiITUGt8E0AWFJLDiQHqaADpIq2sSLYOXJzIojHJOkMBFzoxeFiX4OsCr1jUItgA2xjXaCXQqiITUGt8E0AWFJLDiQHqaADpIq2sSLYOXJzIojHJOkMBFzoxeFiX4OsCr1jUItgA2xjXaCXQqiITUGt8E0AWFJLDiQHqaADpIq2sSLYOXJzIojHJOkMBFzoxeFiX4OsCr1jUItgA2xjXaCXQqiITUGt8E0AWFJLDiQHqaADpIq2sSLYOXJzIojHJOkMBFzoxeFiX4OsCr1jUItgA2xjXaCXQqiITUGt8E0AWFJLDiQHqaADpIq2sSLYOXJzIojHJOkMBFzoxeFiX4OsCr1jUItgA2xjXaCXQqiITUGt8E0AWFJLDiQHqaADpIq2sSLYOXJzIojHJOkMBFzoxeFiX4OsCr1jUItgA2xjXaCXQqiITUGt8E0AWFJLDiQHqaADpIq2sSLYOXJzIojHJP8f6T4nPT3TBnTAAAAAElFTkSuQmCC;" vertex="1" parent="1">
          <mxGeometry x="40" y="-210" width="1416" height="280" as="geometry" />
        </mxCell>
        <mxCell id="C7I-OKh7lCM1Kby-w0RO-40" value="未补全前只有sno 和 资金账号，&amp;nbsp; 补全后数据" style="text;html=1;align=center;verticalAlign=middle;resizable=0;points=[];autosize=1;strokeColor=none;fillColor=none;" vertex="1" parent="1">
          <mxGeometry x="48.25" y="-240" width="260" height="30" as="geometry" />
        </mxCell>
        <mxCell id="C7I-OKh7lCM1Kby-w0RO-41" value="TRADE-DB" style="rounded=1;whiteSpace=wrap;html=1;" vertex="1" parent="1">
          <mxGeometry x="380" y="160" width="120" height="60" as="geometry" />
        </mxCell>
        <mxCell id="C7I-OKh7lCM1Kby-w0RO-44" value="正常场景" style="text;html=1;align=center;verticalAlign=middle;resizable=0;points=[];autosize=1;strokeColor=none;fillColor=none;" vertex="1" parent="1">
          <mxGeometry x="70" y="210" width="70" height="30" as="geometry" />
        </mxCell>
        <mxCell id="C7I-OKh7lCM1Kby-w0RO-45" value="夜盘" style="text;html=1;align=center;verticalAlign=middle;resizable=0;points=[];autosize=1;strokeColor=none;fillColor=none;" vertex="1" parent="1">
          <mxGeometry x="80" y="760" width="50" height="30" as="geometry" />
        </mxCell>
        <mxCell id="C7I-OKh7lCM1Kby-w0RO-48" style="edgeStyle=orthogonalEdgeStyle;rounded=0;orthogonalLoop=1;jettySize=auto;html=1;exitX=1;exitY=0.5;exitDx=0;exitDy=0;" edge="1" parent="1" source="C7I-OKh7lCM1Kby-w0RO-46" target="C7I-OKh7lCM1Kby-w0RO-47">
          <mxGeometry relative="1" as="geometry" />
        </mxCell>
        <mxCell id="C7I-OKh7lCM1Kby-w0RO-46" value="XTRADE" style="rounded=1;whiteSpace=wrap;html=1;" vertex="1" parent="1">
          <mxGeometry x="60" y="890" width="120" height="60" as="geometry" />
        </mxCell>
        <mxCell id="C7I-OKh7lCM1Kby-w0RO-50" style="edgeStyle=orthogonalEdgeStyle;rounded=0;orthogonalLoop=1;jettySize=auto;html=1;" edge="1" parent="1" source="C7I-OKh7lCM1Kby-w0RO-47" target="C7I-OKh7lCM1Kby-w0RO-49">
          <mxGeometry relative="1" as="geometry" />
        </mxCell>
        <mxCell id="C7I-OKh7lCM1Kby-w0RO-47" value="调用下单接口" style="rounded=1;whiteSpace=wrap;html=1;" vertex="1" parent="1">
          <mxGeometry x="380" y="892.5" width="120" height="55" as="geometry" />
        </mxCell>
        <mxCell id="C7I-OKh7lCM1Kby-w0RO-49" value="SQLITE" style="rounded=1;whiteSpace=wrap;html=1;" vertex="1" parent="1">
          <mxGeometry x="380" y="720" width="120" height="60" as="geometry" />
        </mxCell>
        <mxCell id="C7I-OKh7lCM1Kby-w0RO-52" value="1. 订单只存储SNO 和资金账号" style="text;html=1;align=center;verticalAlign=middle;resizable=0;points=[];autosize=1;strokeColor=none;fillColor=none;" vertex="1" parent="1">
          <mxGeometry x="335" y="838" width="190" height="30" as="geometry" />
        </mxCell>
        <mxCell id="C7I-OKh7lCM1Kby-w0RO-54" style="edgeStyle=orthogonalEdgeStyle;rounded=0;orthogonalLoop=1;jettySize=auto;html=1;entryX=1;entryY=0.5;entryDx=0;entryDy=0;" edge="1" parent="1" source="C7I-OKh7lCM1Kby-w0RO-53" target="C7I-OKh7lCM1Kby-w0RO-49">
          <mxGeometry relative="1" as="geometry" />
        </mxCell>
        <mxCell id="C7I-OKh7lCM1Kby-w0RO-55" value="1. 扫描SNO" style="edgeLabel;html=1;align=center;verticalAlign=middle;resizable=0;points=[];" vertex="1" connectable="0" parent="C7I-OKh7lCM1Kby-w0RO-54">
          <mxGeometry x="0.0815" y="-2" relative="1" as="geometry">
            <mxPoint as="offset" />
          </mxGeometry>
        </mxCell>
        <mxCell id="C7I-OKh7lCM1Kby-w0RO-53" value="下一个交易日 定时让任务" style="rounded=1;whiteSpace=wrap;html=1;" vertex="1" parent="1">
          <mxGeometry x="770" y="722.5" width="120" height="55" as="geometry" />
        </mxCell>
        <mxCell id="C7I-OKh7lCM1Kby-w0RO-56" value="" style="points=[];aspect=fixed;html=1;align=center;shadow=0;dashed=0;fillColor=#FF6A00;strokeColor=none;shape=mxgraph.alibaba_cloud.redis_kvstore;" vertex="1" parent="1">
          <mxGeometry x="688.75" y="881.25" width="52.5" height="41.4" as="geometry" />
        </mxCell>
        <mxCell id="C7I-OKh7lCM1Kby-w0RO-57" value="???&amp;nbsp; &amp;nbsp;客户未登录" style="text;html=1;align=center;verticalAlign=middle;resizable=0;points=[];autosize=1;strokeColor=none;fillColor=none;" vertex="1" parent="1">
          <mxGeometry x="660" y="928.75" width="110" height="30" as="geometry" />
        </mxCell>
      </root>
    </mxGraphModel>
  </diagram>
</mxfile>
